<svg xmlns="http://www.w3.org/2000/svg" width="68" height="68" viewBox="0 0 68 68">
  <g id="public_relations" data-name="public relations" transform="translate(-13066 419)">
    <rect id="Rectangle_544" data-name="Rectangle 544" width="68" height="68" transform="translate(13066 -419)" fill="none"/>
    <g id="fair-trade" transform="translate(13069 -416)">
      <path id="Path_962" data-name="Path 962" d="M51.349,8.81A30.079,30.079,0,0,0,8.563,51.1c.771.789,2.066-.407,1.261-1.232A28.316,28.316,0,0,1,50.1,10.056,28.317,28.317,0,0,1,30.08,58.4a28.087,28.087,0,0,1-16.847-5.556c-.886-.657-1.976.729-1.05,1.416A30.08,30.08,0,0,0,60.16,30.08a29.883,29.883,0,0,0-8.81-21.27Z" transform="translate(0)" fill="#e84625" stroke="#e84625" stroke-width="0.2"/>
      <path id="Path_963" data-name="Path 963" d="M132.514,120.854a11.216,11.216,0,0,0-15.237-.579,11.229,11.229,0,0,0-15.8,15.868,3.471,3.471,0,0,0,2.467,6.087,3.5,3.5,0,0,0,3.654,3.654,3.5,3.5,0,0,0,3.654,3.652,3.5,3.5,0,0,0,6.086,2.47,3.82,3.82,0,0,0,2.195,1.177,3.511,3.511,0,0,0,3.905-3.648,3.522,3.522,0,0,0,3.655-3.654,3.534,3.534,0,0,0,1.646-.335,3.416,3.416,0,0,0,2.008-3.312,3.478,3.478,0,0,0,2.5-.86c2.015-1.78,1.246-3.9-.075-5.372a11.215,11.215,0,0,0-.655-15.147Zm-28.768,19.619a1.718,1.718,0,0,1-1.2-2.906l3.128-3.128a1.7,1.7,0,0,1,2.408,2.408l-3.128,3.128A1.691,1.691,0,0,1,103.746,140.473Zm3.654,3.654a1.718,1.718,0,0,1-1.2-2.906l3.128-3.128a1.7,1.7,0,0,1,2.408,2.408l-3.128,3.128A1.692,1.692,0,0,1,107.4,144.127Zm2.45,3.155a1.727,1.727,0,0,1,0-2.408l3.128-3.128a1.7,1.7,0,0,1,2.408,2.408l-3.128,3.128A1.7,1.7,0,0,1,109.85,147.282Zm3.654,3.654a1.723,1.723,0,0,1,0-2.408l3.128-3.128a1.7,1.7,0,0,1,2.408,2.408l-3.128,3.128A1.7,1.7,0,0,1,113.5,150.936Zm8.164-.986a1.683,1.683,0,0,1-.65,1.131,1.791,1.791,0,0,1-2.436-.323,12.365,12.365,0,0,0,2.305-2.51A2.008,2.008,0,0,1,121.668,149.95Zm10.567-10.024a1.822,1.822,0,0,1-2.5.062c-1.959-1.957-3.94-3.94-5.907-5.907-.78-.779-2.062.431-1.246,1.246q2.953,2.953,5.907,5.907c1.532,1.536-.949,3.867-2.408,2.408l-5.907-5.907c-.78-.779-2.062.431-1.246,1.246,1.967,1.967,3.951,3.946,5.907,5.907a1.7,1.7,0,0,1-2.4,2.41l-1.161-1.161a3.5,3.5,0,0,0-3.63-2.991,3.5,3.5,0,0,0-3.652-3.652,3.5,3.5,0,0,0-3.656-3.654,3.463,3.463,0,0,0-5.907-2.647l-1.682,1.682c-2.659-4.084-3.154-9.071.551-12.776A9.54,9.54,0,0,1,116,121.5l-5.126,5.126c-3.161,3.161,1.751,8.05,4.9,4.9l5.157-5.157,4.185,4.187c.78.78,2.062-.43,1.247-1.246,0,0-3.976-4.155-4.88-4.878a.889.889,0,0,0-1.175.066l-5.78,5.781a1.7,1.7,0,0,1-2.408-2.408L117.9,122.1a9.453,9.453,0,0,1,13.987,12.685l-2.216-2.161c-.78-.78-2.062.43-1.247,1.246.816.769,3.2,3.059,3.2,3.059C132.241,137.557,133.457,138.789,132.236,139.926Z" transform="translate(-87.201 -103.755)" fill="#e84625" stroke="#e84625" stroke-width="0.2"/>
    </g>
  </g>
</svg>
