<svg xmlns="http://www.w3.org/2000/svg" width="68" height="68" viewBox="0 0 68 68">
  <g id="video_production" data-name="video production" transform="translate(-12524 918)">
    <rect id="Rectangle_538" data-name="Rectangle 538" width="68" height="68" transform="translate(12524 -918)" fill="none"/>
    <g id="computer_1_" data-name="computer (1)" transform="translate(12521 -921)">
      <path id="Path_877" data-name="Path 877" d="M61.967,15.38h-.461V9.845a.923.923,0,0,0-1.146-.895L52.979,10.8a.923.923,0,0,0-.7.895v.923H50.435V11.229A3.232,3.232,0,0,0,47.206,8H19.531A3.232,3.232,0,0,0,16.3,11.229v.258l-3.509-.7a.922.922,0,0,0-1.1.9v3.69h-.461A3.232,3.232,0,0,0,8,18.609V54.587a3.232,3.232,0,0,0,3.229,3.229H29.937l-.554,2.768H26.45a.923.923,0,0,0-.923.923V63.35h-3.69a.923.923,0,1,0,0,1.845h29.52a.923.923,0,1,0,0-1.845h-3.69V61.505a.923.923,0,0,0-.923-.923H43.812l-.554-2.768H61.967A3.232,3.232,0,0,0,65.2,54.587V18.609a3.232,3.232,0,0,0-3.229-3.229Zm-7.841-2.969,5.535-1.384V27.113l-5.535-1.384Zm-3.69,2.047H52.28v9.225H50.435ZM18.148,11.229a1.385,1.385,0,0,1,1.384-1.384H47.206a1.385,1.385,0,0,1,1.384,1.384V26.911A1.385,1.385,0,0,1,47.206,28.3H19.531a1.385,1.385,0,0,1-1.384-1.384ZM28.3,31.985V30.14H37.52v1.845ZM33.83,33.83V50.435H31.985V33.83Zm-20.3-21.015,2.768.554V17.41l-2.768.623Zm-3.69,5.793a1.385,1.385,0,0,1,1.384-1.384h.461v1.96a.921.921,0,0,0,.923.923.877.877,0,0,0,.2-.023L16.3,19.3v7.611a3.232,3.232,0,0,0,3.229,3.229H26.45v2.768a.923.923,0,0,0,.923.923H30.14V50.435H9.845ZM45.823,62.428v.923H27.373v-.923ZM31.266,60.583l.554-2.768h9.557l.554,2.768Zm32.085-6a1.385,1.385,0,0,1-1.384,1.384H11.229a1.385,1.385,0,0,1-1.384-1.384V52.28H63.35Zm0-4.151H35.675V33.83h2.768a.923.923,0,0,0,.923-.923V30.14h7.841a3.232,3.232,0,0,0,3.229-3.229V25.528H52.28v.923a.922.922,0,0,0,.7.895l7.38,1.845a.923.923,0,0,0,1.146-.895V17.225h.461a1.385,1.385,0,0,1,1.384,1.384Z" fill="#e84625"/>
      <path id="Path_878" data-name="Path 878" d="M37.535,400H32.923a.923.923,0,0,0,0,1.845h4.613a.923.923,0,0,0,0-1.845Z" transform="translate(-21.232 -346.797)" fill="#e84625"/>
      <path id="Path_879" data-name="Path 879" d="M104.923,39.38H118.76a.923.923,0,0,0,.923-.923V32.923A.923.923,0,0,0,118.76,32H104.923a.923.923,0,0,0-.923.923v5.535A.923.923,0,0,0,104.923,39.38Zm.923-5.535h11.993v3.69H105.845Z" transform="translate(-84.93 -21.232)" fill="#e84625"/>
      <path id="Path_880" data-name="Path 880" d="M104.923,108.613h2.768a.923.923,0,0,0,.923-.923v-2.768a.923.923,0,0,0-.923-.923h-2.768a.923.923,0,0,0-.923.923v2.768A.923.923,0,0,0,104.923,108.613Zm.923-2.768h.923v.923h-.923Z" transform="translate(-84.93 -84.93)" fill="#e84625"/>
      <path id="Path_881" data-name="Path 881" d="M155.69,104h-2.768a.922.922,0,0,0-.923.923v2.768a.922.922,0,0,0,.923.923h2.768a.923.923,0,0,0,.923-.923v-2.768A.923.923,0,0,0,155.69,104Zm-.923,2.768h-.923v-.923h.923Z" transform="translate(-127.395 -84.93)" fill="#e84625"/>
      <path id="Path_882" data-name="Path 882" d="M203.69,104h-2.768a.923.923,0,0,0-.923.923v2.768a.923.923,0,0,0,.923.923h2.768a.923.923,0,0,0,.923-.923v-2.768A.923.923,0,0,0,203.69,104Zm-.923,2.768h-.923v-.923h.923Z" transform="translate(-169.86 -84.93)" fill="#e84625"/>
    </g>
  </g>
</svg>
