<svg xmlns="http://www.w3.org/2000/svg" width="68" height="68" viewBox="0 0 68 68">
  <g id="digital_marketing" data-name="digital marketing" transform="translate(-11982 669)">
    <rect id="Rectangle_535" data-name="Rectangle 535" width="68" height="68" transform="translate(11982 -669)" fill="none"/>
    <g id="advertising" transform="translate(11988 -664.041)">
      <g id="Group_294" data-name="Group 294" transform="translate(0 0.041)">
        <g id="Group_293" data-name="Group 293">
          <path id="Path_883" data-name="Path 883" d="M53.366,21.452a13.132,13.132,0,0,0-20.35-16.6,6.728,6.728,0,0,1-6.927,2.38,16.844,16.844,0,0,0-6.662-.477A17.03,17.03,0,0,0,4.851,21.2a16.785,16.785,0,0,0,1.616,9.821,6.561,6.561,0,0,0-.751,13.067L6.728,54.467A1.876,1.876,0,0,0,8.6,56.343h5.475a1.876,1.876,0,0,0,1.424-.657,1.918,1.918,0,0,0,.413-1.6l-2.509-9.945h.469a23.419,23.419,0,0,1,3.1.223A20.6,20.6,0,0,0,35.692,56.343q.929,0,1.876-.084A20.793,20.793,0,0,0,56.239,37.383a20.486,20.486,0,0,0-3.071-12.6A2.863,2.863,0,0,1,53.366,21.452ZM5.635,42.176a4.691,4.691,0,0,1,0-9.195Zm8.444,12.291L8.6,54.373,7.606,44.146H11.47ZM7.512,42.27V32.887H9.388V42.27Zm6.362,0H11.265V32.887h2.609a25.269,25.269,0,0,0,8.011-1.3l4.392-1.464V45.034L21.885,43.57A25.272,25.272,0,0,0,13.874,42.27Zm40.489-5.037a18.735,18.735,0,0,1-35.076,7.554c.674.16,1.344.343,2.005.563l10.321,3.44a.934.934,0,0,0,1.232-.889V43.208A3.753,3.753,0,0,0,36.6,39.455V35.7a3.753,3.753,0,0,0-3.753-3.753V27.258a.938.938,0,0,0-1.235-.89l-10.321,3.44a23.426,23.426,0,0,1-7.415,1.2H8.6A14.994,14.994,0,0,1,25.582,9.037a8.6,8.6,0,0,0,8.883-3,11.253,11.253,0,0,1,17.44,14.225,4.741,4.741,0,0,0-.333,5.513A18.626,18.626,0,0,1,54.363,37.232ZM28.153,45.66V29.5l2.815-.938V46.6Zm4.691-4.328V33.826A1.876,1.876,0,0,1,34.721,35.7v3.753A1.876,1.876,0,0,1,32.844,41.332Z" transform="translate(0 -0.041)" fill="#e84625"/>
        </g>
      </g>
      <g id="Group_296" data-name="Group 296" transform="translate(13.141 38.517)">
        <g id="Group_295" data-name="Group 295">
          <rect id="Rectangle_108" data-name="Rectangle 108" width="3.753" height="1.876" fill="#e84625"/>
        </g>
      </g>
      <g id="Group_298" data-name="Group 298" transform="translate(13.141 34.764)">
        <g id="Group_297" data-name="Group 297">
          <rect id="Rectangle_109" data-name="Rectangle 109" width="3.753" height="1.876" fill="#e84625"/>
        </g>
      </g>
      <g id="Group_300" data-name="Group 300" transform="translate(40.35 8.493)">
        <g id="Group_299" data-name="Group 299">
          <path id="Path_884" data-name="Path 884" d="M351.4,76.281a.939.939,0,0,0-.26-.26l-5.629-3.753a.938.938,0,0,0-1.459.781v7.506a.938.938,0,0,0,1.459.781l5.629-3.753A.938.938,0,0,0,351.4,76.281Zm-5.472,2.52v-4l3,2Z" transform="translate(-344.049 -72.11)" fill="#e84625"/>
        </g>
      </g>
      <g id="Group_302" data-name="Group 302" transform="translate(34.721 4.74)">
        <g id="Group_301" data-name="Group 301">
          <path id="Path_885" data-name="Path 885" d="M304.493,40.112a8.444,8.444,0,1,0,8.444,8.444A8.444,8.444,0,0,0,304.493,40.112Zm0,15.012a6.568,6.568,0,1,1,6.568-6.568A6.568,6.568,0,0,1,304.493,55.124Z" transform="translate(-296.049 -40.112)" fill="#e84625"/>
        </g>
      </g>
      <g id="Group_304" data-name="Group 304" transform="translate(10.326 10.37)">
        <g id="Group_303" data-name="Group 303">
          <path id="Path_886" data-name="Path 886" d="M102.123,94.68h-.938a.938.938,0,0,1-.938-.938V90.927a2.815,2.815,0,1,0-5.629,0v2.815a.938.938,0,0,1-.938.938.938.938,0,0,0-.938-.938H88.987a.938.938,0,0,0-.938.938V105a.938.938,0,0,0,.938.938H92.74a.938.938,0,0,0,.938-.938h8.444a2.815,2.815,0,0,0,2.815-2.815V97.494A2.815,2.815,0,0,0,102.123,94.68ZM91.8,104.062H89.925V95.618H91.8Zm11.259-1.876a.938.938,0,0,1-.938.938H93.678V96.556a2.815,2.815,0,0,0,2.815-2.815V90.927a.938.938,0,0,1,1.876,0v2.815a2.815,2.815,0,0,0,2.815,2.815h.938a.938.938,0,0,1,.938.938Z" transform="translate(-88.049 -88.112)" fill="#e84625"/>
        </g>
      </g>
      <g id="Group_306" data-name="Group 306" transform="translate(40.965 32.886)">
        <g id="Group_305" data-name="Group 305">
          <path id="Path_887" data-name="Path 887" d="M360.051,281.323l-.4-.4a2.825,2.825,0,0,0-3.551-.351l-1.014.676-1.014-.676a2.823,2.823,0,0,0-3.551.351l-.4.4a2.815,2.815,0,0,0,0,3.98l4.3,4.3a.938.938,0,0,0,1.327,0l4.3-4.3A2.815,2.815,0,0,0,360.051,281.323Zm-1.325,2.653h0l-3.639,3.638-3.638-3.635a.938.938,0,0,1,0-1.327l.4-.4a.938.938,0,0,1,1.184-.117l1.534,1.023a.938.938,0,0,0,1.041,0l1.535-1.023a.938.938,0,0,1,1.183.116v0l.4.4A.938.938,0,0,1,358.726,283.976Z" transform="translate(-349.294 -280.1)" fill="#e84625"/>
        </g>
      </g>
      <g id="Group_308" data-name="Group 308" transform="translate(35.688 25.155)">
        <g id="Group_307" data-name="Group 307" transform="translate(0 0)">
          <rect id="Rectangle_110" data-name="Rectangle 110" width="3.868" height="1.876" transform="translate(0 3.753) rotate(-75.948)" fill="#e84625"/>
        </g>
      </g>
      <g id="Group_310" data-name="Group 310" transform="translate(38.053 28.295)">
        <g id="Group_309" data-name="Group 309" transform="translate(0 0)">
          <rect id="Rectangle_111" data-name="Rectangle 111" width="4.196" height="1.876" transform="translate(0 1.876) rotate(-26.565)" fill="#e84625"/>
        </g>
      </g>
      <g id="Group_312" data-name="Group 312" transform="translate(35.683 46.733)">
        <g id="Group_311" data-name="Group 311" transform="translate(0 0)">
          <rect id="Rectangle_112" data-name="Rectangle 112" width="1.876" height="3.868" transform="translate(0 0.455) rotate(-14.035)" fill="#e84625"/>
        </g>
      </g>
      <g id="Group_314" data-name="Group 314" transform="translate(38.053 44.244)">
        <g id="Group_313" data-name="Group 313" transform="translate(0 0)">
          <rect id="Rectangle_113" data-name="Rectangle 113" width="1.876" height="4.196" transform="translate(0 1.678) rotate(-63.435)" fill="#e84625"/>
        </g>
      </g>
      <g id="Group_316" data-name="Group 316" transform="translate(0.944 2.864)">
        <g id="Group_315" data-name="Group 315">
          <path id="Path_888" data-name="Path 888" d="M8.049,46.63H9.925c0-12.732,7.55-20.641,19.7-20.641V24.112C16.318,24.112,8.049,32.744,8.049,46.63Z" transform="translate(-8.049 -24.112)" fill="#e84625"/>
        </g>
      </g>
    </g>
  </g>
</svg>
