<?xml version="1.0" encoding="UTF-8" standalone="no"?>
<svg
   xmlns:dc="http://purl.org/dc/elements/1.1/"
   xmlns:cc="http://creativecommons.org/ns#"
   xmlns:rdf="http://www.w3.org/1999/02/22-rdf-syntax-ns#"
   xmlns:svg="http://www.w3.org/2000/svg"
   xmlns="http://www.w3.org/2000/svg"
   version="1.0"
   id="Layer_1"
   x="0px"
   y="0px"
   viewBox="0 0 1200 400"
   style="enable-background:new 0 0 1200 1200;"
   xml:space="preserve"><metadata
   id="metadata73"><rdf:RDF><cc:Work
       rdf:about=""><dc:format>image/svg+xml</dc:format><dc:type
         rdf:resource="http://purl.org/dc/dcmitype/StillImage" /><dc:title></dc:title></cc:Work></rdf:RDF></metadata><defs
   id="defs71" />
<style
   type="text/css"
   id="style2">
	.st0{fill:#404041;}
	.st1{fill:#E84625;}
</style>
<g
   id="g46"
   transform="matrix(1.3463619,0,0,1.3463619,-201.41205,-600.36573)">
	<path
   class="st0"
   d="m 283.02054,679.25391 h 4.47754 v 39.66992 h -4.47754 z"
   id="path4"
   style="mix-blend-mode:overlay;stroke:none;stroke-opacity:1;fill:#230000;fill-opacity:1" />
	<path
   class="st0"
   d="m 297.24515,689.625 h 4.36328 v 5.10059 c 1.92676,-3.17383 4.9873,-5.72364 10.03125,-5.72364 7.08398,0 11.2207,4.75977 11.2207,11.73047 v 18.19141 h -4.36426 v -17.11426 c 0,-5.44043 -2.94628,-8.84082 -8.10351,-8.84082 -5.04395,0 -8.78418,3.68359 -8.78418,9.18066 v 16.77442 h -4.36328 z"
   id="path6"
   style="mix-blend-mode:overlay;stroke:none;stroke-opacity:1;fill:#230000;fill-opacity:1" />
	<path
   class="st0"
   d="m 328.58401,715.18359 2.21094,-3.11718 c 3.17285,2.38086 6.68653,3.74023 10.14356,3.74023 3.51367,0 6.06445,-1.81348 6.06445,-4.64648 v -0.11328 c 0,-2.94727 -3.45703,-4.08106 -7.31152,-5.15723 -4.58985,-1.30371 -9.69043,-2.89063 -9.69043,-8.27442 v -0.11328 c 0,-5.04394 4.19336,-8.38672 9.97461,-8.38672 3.57031,0 7.53711,1.2461 10.54004,3.2295 l -1.9834,3.28711 c -2.71973,-1.75684 -5.83692,-2.83301 -8.66992,-2.83301 -3.45704,0 -5.66797,1.81347 -5.66797,4.25 v 0.11328 c 0,2.77734 3.62695,3.85352 7.53808,5.04394 4.53321,1.36036 9.40723,3.11622 9.40723,8.38672 v 0.11328 c 0,5.55469 -4.59082,8.78418 -10.42774,8.78418 -4.19335,0 -8.84082,-1.64355 -12.12793,-4.30664 z"
   id="path8"
   style="mix-blend-mode:overlay;stroke:none;stroke-opacity:1;fill:#230000;fill-opacity:1" />
	<path
   class="st0"
   d="m 358.22366,678.4043 h 4.98633 v 4.8164 h -4.98633 z m 0.28321,11.2207 h 4.36328 v 29.29883 h -4.36328 z"
   id="path10"
   style="mix-blend-mode:overlay;stroke:none;stroke-opacity:1;fill:#230000;fill-opacity:1" />
	<path
   class="st0"
   d="m 371.54007,724.02441 1.98437,-3.40039 c 3.34278,2.43653 7.08399,3.74024 11.27735,3.74024 6.45996,0 10.6543,-3.57031 10.6543,-10.42774 v -3.45703 c -2.55079,3.40039 -6.1211,6.17774 -11.50489,6.17774 -7.02734,0 -13.77051,-5.27051 -13.77051,-13.71485 v -0.11328 c 0,-8.55762 6.80079,-13.82715 13.77051,-13.82715 5.49707,0 9.06739,2.71973 11.44824,5.89356 V 689.625 h 4.36329 v 24.19824 c 0,4.53418 -1.36036,7.99121 -3.74024,10.3711 -2.60644,2.60644 -6.51758,3.91015 -11.16406,3.91015 -4.87402,0 -9.40723,-1.36035 -13.31836,-4.08008 z m 24.0293,-21.13867 v -0.11328 c 0,-6.00683 -5.21387,-9.91699 -10.76758,-9.91699 -5.55371,0 -10.14453,3.85351 -10.14453,9.86035 v 0.11328 c 0,5.89356 4.7041,9.97461 10.14453,9.97461 5.55371,0 10.76758,-4.02441 10.76758,-9.91797 z"
   id="path12"
   style="mix-blend-mode:overlay;stroke:none;stroke-opacity:1;fill:#230000;fill-opacity:1" />
	<path
   class="st0"
   d="m 408.37796,677.55371 h 4.36328 v 17.17188 c 1.92676,-3.17383 4.98731,-5.72364 10.03125,-5.72364 7.08399,0 11.2207,4.75977 11.2207,11.73047 v 18.19141 h -4.36425 v -17.11426 c 0,-5.44043 -2.94629,-8.84082 -8.10352,-8.84082 -5.04394,0 -8.78418,3.68359 -8.78418,9.18066 v 16.77442 h -4.36328 z"
   id="path14"
   style="mix-blend-mode:overlay;stroke:none;stroke-opacity:1;fill:#230000;fill-opacity:1" />
	<path
   class="st0"
   d="m 443.6846,711.16016 v -17.68164 h -4.08105 V 689.625 h 4.08105 v -8.84082 h 4.36328 v 8.84082 h 9.29395 v 3.85352 h -9.29395 v 17.11425 c 0,3.57032 1.9834,4.87403 4.93067,4.87403 1.47265,0 2.71972,-0.28321 4.25,-1.01953 v 3.74023 c -1.53028,0.79297 -3.17383,1.24609 -5.27051,1.24609 -4.70313,0 -8.27344,-2.32324 -8.27344,-8.27343 z"
   id="path16"
   style="mix-blend-mode:overlay;stroke:none;stroke-opacity:1;fill:#230000;fill-opacity:1" />
	<path
   class="st0"
   d="m 461.47855,715.18359 2.21093,-3.11718 c 3.17286,2.38086 6.68653,3.74023 10.14356,3.74023 3.51367,0 6.06445,-1.81348 6.06445,-4.64648 v -0.11328 c 0,-2.94727 -3.45703,-4.08106 -7.31152,-5.15723 -4.58985,-1.30371 -9.69043,-2.89063 -9.69043,-8.27442 v -0.11328 c 0,-5.04394 4.19336,-8.38672 9.97461,-8.38672 3.57031,0 7.53711,1.2461 10.54004,3.2295 l -1.9834,3.28711 c -2.71973,-1.75684 -5.83692,-2.83301 -8.66992,-2.83301 -3.45703,0 -5.66797,1.81347 -5.66797,4.25 v 0.11328 c 0,2.77734 3.62695,3.85352 7.53808,5.04394 4.53321,1.36036 9.40723,3.11622 9.40723,8.38672 v 0.11328 c 0,5.55469 -4.59082,8.78418 -10.42773,8.78418 -4.19336,0 -8.84082,-1.64355 -12.12793,-4.30664 z"
   id="path18"
   style="mix-blend-mode:overlay;stroke:none;stroke-opacity:1;fill:#230000;fill-opacity:1" />
	<path
   class="st0"
   d="m 508.74222,673.7002 h 3.68362 v 52.47753 h -3.68362 z"
   id="path20"
   style="mix-blend-mode:overlay;stroke:none;stroke-opacity:1;fill:#230000;fill-opacity:1" />
	<path
   class="st0"
   d="m 539.91119,679.25391 h 4.47754 v 39.66992 h -4.47754 z"
   id="path22"
   style="mix-blend-mode:overlay;stroke:none;stroke-opacity:1;fill:#230000;fill-opacity:1" />
	<path
   class="st0"
   d="m 552.43561,704.35937 v -0.11328 c 0,-9.57714 6.9707,-15.24414 13.99707,-15.24414 5.44043,0 8.9541,2.94629 11.22168,6.2334 v -17.68164 h 4.36328 v 41.37012 h -4.36328 v -5.89356 c -2.38086,3.51368 -5.83789,6.51661 -11.22168,6.51661 -7.02637,-10e-6 -13.99707,-5.55372 -13.99707,-15.18751 z m 25.38867,-0.0566 v -0.11328 c 0,-6.74414 -5.15723,-11.27734 -10.59766,-11.27734 -5.66699,0 -10.31445,4.19336 -10.31445,11.27734 v 0.11328 c 0,6.91407 4.76074,11.33399 10.31445,11.33399 5.44043,0 10.59766,-4.58985 10.59766,-11.33399 z"
   id="path24"
   style="mix-blend-mode:overlay;stroke:none;stroke-opacity:1;fill:#230000;fill-opacity:1" />
	<path
   class="st0"
   d="m 603.5528,715.80664 c 4.02343,0 6.85742,-1.64355 9.2373,-4.13672 l 2.71973,2.43653 c -2.94629,3.2871 -6.5166,5.49707 -12.07032,5.49707 -8.04785,0 -14.62109,-6.17676 -14.62109,-15.30079 0,-8.50097 5.9502,-15.30078 14.05371,-15.30078 8.6709,0 13.6582,6.91309 13.6582,15.52735 0,0.39648 0,0.85058 -0.0566,1.53027 h -23.23535 c 0.62305,6.17676 5.15723,9.74707 10.31446,9.74707 z m 8.55761,-13.26074 c -0.51074,-5.32715 -3.57031,-9.86035 -9.35156,-9.86035 -5.04297,0 -8.89746,4.19336 -9.52051,9.86035 z"
   id="path26"
   style="mix-blend-mode:overlay;stroke:none;stroke-opacity:1;fill:#230000;fill-opacity:1" />
	<path
   class="st0"
   d="m 620.83698,710.42285 v -0.11328 c 0,-6.29004 5.10058,-9.57715 12.52441,-9.57715 3.74023,0 6.34766,0.50977 8.9541,1.24707 v -0.90722 c 0,-5.21387 -3.17285,-7.9336 -8.66992,-7.9336 -3.45703,0 -6.17774,0.84961 -8.89746,2.09668 l -1.30371,-3.57031 c 3.23047,-1.47363 6.34668,-2.49317 10.65429,-2.49317 4.13672,0 7.36719,1.13282 9.46387,3.2295 2.04004,2.04004 3.06055,4.87402 3.06055,8.61425 v 17.90821 h -4.30762 v -4.36328 c -2.04004,2.60644 -5.38379,4.98633 -10.54101,4.98633 -5.49708,-10e-6 -10.9375,-3.11622 -10.9375,-9.12403 z m 21.53515,-2.2666 v -2.71973 c -2.15332,-0.62402 -4.98633,-1.24707 -8.55664,-1.24707 -5.44043,0 -8.55762,2.37989 -8.55762,5.89356 v 0.11328 c 0,3.68359 3.40039,5.83691 7.36719,5.83691 5.38379,0 9.74707,-3.22949 9.74707,-7.87695 z"
   id="path28"
   style="mix-blend-mode:overlay;stroke:none;stroke-opacity:1;fill:#230000;fill-opacity:1" />
	<path
   class="st0"
   d="m 652.2901,715.18359 2.21094,-3.11718 c 3.17285,2.38086 6.68652,3.74023 10.14355,3.74023 3.51367,0 6.06348,-1.81348 6.06348,-4.64648 v -0.11328 c 0,-2.94727 -3.45606,-4.08106 -7.31055,-5.15723 -4.58984,-1.30371 -9.69043,-2.89063 -9.69043,-8.27442 v -0.11328 c 0,-5.04394 4.19336,-8.38672 9.97461,-8.38672 3.57031,0 7.53711,1.2461 10.54004,3.2295 l -1.9834,3.28711 c -2.71972,-1.75684 -5.83691,-2.83301 -8.66992,-2.83301 -3.45703,0 -5.66797,1.81347 -5.66797,4.25 v 0.11328 c 0,2.77734 3.62695,3.85352 7.53809,5.04394 4.5332,1.36036 9.40722,3.11622 9.40722,8.38672 v 0.11328 c 0,5.55469 -4.59082,8.78418 -10.42773,8.78418 -4.19336,0 -8.84082,-1.64355 -12.12793,-4.30664 z"
   id="path30"
   style="mix-blend-mode:overlay;stroke:none;stroke-opacity:1;fill:#230000;fill-opacity:1" />
	<path
   class="st0"
   d="m 699.55377,673.7002 h 3.6836 v 52.47753 h -3.6836 z"
   id="path32"
   style="mix-blend-mode:overlay;stroke:none;stroke-opacity:1;fill:#230000;fill-opacity:1" />
	<path
   class="st0"
   d="m 730.72272,679.25391 h 4.47754 v 39.66992 h -4.47754 z"
   id="path34"
   style="mix-blend-mode:overlay;stroke:none;stroke-opacity:1;fill:#230000;fill-opacity:1" />
	<path
   class="st0"
   d="m 744.94733,689.625 h 4.36328 v 4.93066 c 1.92676,-2.89062 4.53418,-5.55371 9.46387,-5.55371 4.76074,0 7.82128,2.54981 9.4082,5.83692 2.09668,-3.23047 5.21289,-5.83692 10.31347,-5.83692 6.74415,0 10.88086,4.53321 10.88086,11.78711 v 18.13477 h -4.36328 v -17.11426 c 0,-5.66797 -2.83398,-8.84082 -7.59375,-8.84082 -4.4209,0 -8.10449,3.28711 -8.10449,9.06738 v 16.8877 h -4.30664 v -17.22852 c 0,-5.49707 -2.89062,-8.72656 -7.53711,-8.72656 -4.64746,0 -8.16113,3.85352 -8.16113,9.2373 v 16.71778 h -4.36328 z"
   id="path36"
   style="mix-blend-mode:overlay;stroke:none;stroke-opacity:1;fill:#230000;fill-opacity:1" />
	<path
   class="st0"
   d="m 797.70905,689.625 h 4.36328 v 5.89355 c 2.37988,-3.51367 5.83691,-6.5166 11.2207,-6.5166 7.02734,0 13.99805,5.55371 13.99805,15.1875 v 0.11328 c 0,9.57715 -6.91407,15.24414 -13.99805,15.24414 -5.44043,0 -8.9541,-2.94628 -11.2207,-6.23339 v 14.67773 h -4.36328 z m 25.10546,14.73437 v -0.11328 c 0,-6.91406 -4.76074,-11.33398 -10.31445,-11.33398 -5.44043,0 -10.59766,4.58984 -10.59766,11.27734 v 0.11328 c 0,6.80079 5.15723,11.33399 10.59766,11.33399 5.66699,0 10.31445,-4.19336 10.31445,-11.27735 z"
   id="path38"
   style="mix-blend-mode:overlay;stroke:none;stroke-opacity:1;fill:#230000;fill-opacity:1" />
	<path
   class="st0"
   d="m 831.9942,710.42285 v -0.11328 c 0,-6.29004 5.10059,-9.57715 12.52442,-9.57715 3.74023,0 6.34765,0.50977 8.9541,1.24707 v -0.90722 c 0,-5.21387 -3.17285,-7.9336 -8.66992,-7.9336 -3.45704,0 -6.17774,0.84961 -8.89747,2.09668 l -1.30371,-3.57031 c 3.23047,-1.47363 6.34668,-2.49317 10.6543,-2.49317 4.13672,0 7.36719,1.13282 9.46387,3.2295 2.04004,2.04004 3.06054,4.87402 3.06054,8.61425 v 17.90821 h -4.30761 v -4.36328 c -2.04004,2.60644 -5.38379,4.98633 -10.54004,4.98633 -5.49805,-10e-6 -10.93848,-3.11622 -10.93848,-9.12403 z m 21.53516,-2.2666 v -2.71973 c -2.15332,-0.62402 -4.98633,-1.24707 -8.55664,-1.24707 -5.44043,0 -8.55762,2.37989 -8.55762,5.89356 v 0.11328 c 0,3.68359 3.40039,5.83691 7.36719,5.83691 5.38379,0 9.74707,-3.22949 9.74707,-7.87695 z"
   id="path40"
   style="mix-blend-mode:overlay;stroke:none;stroke-opacity:1;fill:#230000;fill-opacity:1" />
	<path
   class="st0"
   d="m 864.07135,704.41602 v -0.11329 c 0,-8.27441 6.45996,-15.30078 15.01758,-15.30078 5.55371,0 9.01074,2.32325 11.73047,5.21289 l -2.88965,3.06055 c -2.32324,-2.43652 -4.93067,-4.41992 -8.89746,-4.41992 -5.9502,0 -10.48438,5.04297 -10.48438,11.33398 v 0.11328 c 0,6.34668 4.64746,11.39063 10.76758,11.39063 3.74024,0 6.63086,-1.87012 8.9541,-4.36328 l 2.77735,2.60644 c -2.94727,3.28711 -6.46094,5.667 -11.95801,5.667 -8.55762,0 -15.01758,-6.96973 -15.01758,-15.1875 z"
   id="path42"
   style="mix-blend-mode:overlay;stroke:none;stroke-opacity:1;fill:#230000;fill-opacity:1" />
	<path
   class="st0"
   d="m 898.64166,711.16016 v -17.68164 h -4.08105 V 689.625 h 4.08105 v -8.84082 h 4.36328 v 8.84082 h 9.29395 v 3.85352 h -9.29395 v 17.11425 c 0,3.57032 1.9834,4.87403 4.93067,4.87403 1.47265,0 2.71972,-0.28321 4.25,-1.01953 v 3.74023 c -1.53028,0.79297 -3.17383,1.24609 -5.27051,1.24609 -4.70312,0 -8.27344,-2.32324 -8.27344,-8.27343 z"
   id="path44"
   style="mix-blend-mode:overlay;stroke:none;stroke-opacity:1;fill:#230000;fill-opacity:1" />
</g>
<g
   id="g66"
   transform="matrix(1.3463619,0,0,1.3463619,-204.56293,-602.0747)">
	<g
   id="g60">
		<path
   class="st1"
   d="m 865.13391,616.76019 c -0.12506,-7.77014 -3.48932,-14.5625 -9.99805,-20.19342 -6.51794,-5.6308 -14.33862,-8.48669 -23.24768,-8.48669 -9.09668,0 -17.17028,2.75561 -23.9978,8.18829 -6.84717,5.44702 -10.3197,11.95264 -10.3197,19.33331 0,8.55311 3.29187,15.72449 9.79022,21.31952 6.49518,5.59949 14.86865,8.43885 24.88599,8.43885 6.35022,0 12.30291,-1.61335 17.69623,-4.79505 5.3703,-3.17627 9.59014,-7.50824 12.53979,-12.87738 l 0.57568,-1.04736 h -5.21911 l -0.25977,0.323 c -4.16022,5.19635 -8.12335,8.77624 -11.77673,10.63751 -4.05493,2.08679 -9.63983,3.14551 -16.59503,3.14551 -6.14643,0 -11.87903,-2.0282 -17.03888,-6.02375 -5.1637,-4.0036 -8.18885,-8.74273 -8.98792,-14.07251 -0.17102,-1.33465 -0.2995,-2.38214 -0.38818,-3.1427 h 62.35388 z m -5.61395,-3.51599 h -56.61835 c 1.565,-6.16015 4.89014,-11.18841 9.88892,-14.9638 5.21277,-3.94227 11.55676,-5.94001 18.85772,-5.94001 7.05079,0 13.34211,2.12268 18.69953,6.31055 5.11725,4.00085 8.19842,8.90729 9.17218,14.59326 z"
   id="path48" />
		<path
   class="st1"
   d="m 763.85742,588.02722 c -9.94818,0 -17.61041,4.04297 -22.80029,12.02503 -2.03558,-3.35743 -4.93311,-6.15168 -8.63623,-8.31629 -4.20294,-2.46039 -8.79083,-3.70874 -13.63831,-3.70874 -4.30798,0 -8.53418,0.9892 -12.56634,2.93915 -2.95313,1.42688 -5.30103,3.15973 -7.01441,5.16595 v -7.14093 h -5.25537 v 54.79731 h 5.25537 v -34.89881 c 0,-4.70599 1.89118,-8.70959 5.62061,-11.89667 3.72912,-3.19018 8.4057,-4.80627 13.89795,-4.80627 5.28827,0 10.02759,1.88904 14.08874,5.61395 4.0813,3.74445 6.15326,8.06299 6.15326,12.83576 v 33.15204 h 5.13343 v -33.42499 c 0,-5.40766 1.8385,-9.8407 5.46582,-13.17542 3.60803,-3.31848 8.43914,-5.00134 14.35534,-5.00134 6.20935,0 11.15552,1.90027 14.70349,5.64746 3.59497,3.7973 5.41651,9.00757 5.41651,15.47968 v 30.47461 h 5.01574 v -30.82856 c 0,-7.63409 -2.24627,-13.75482 -6.67578,-18.1875 -4.46319,-4.47735 -10.69171,-6.74542 -18.51953,-6.74542 z"
   id="path50" />
		<rect
   x="947.81873"
   y="589.24738"
   class="st1"
   width="5.2554078"
   height="54.440762"
   id="rect52" />
		<path
   class="st1"
   d="m 1020.381,589.29523 v 12.47339 c -6.2749,-9.15522 -16.1152,-13.79108 -29.29933,-13.79108 -8.83344,0 -16.62458,2.90826 -23.16248,8.6452 -6.53461,5.7334 -9.8465,12.49524 -9.8465,20.09882 0,7.81482 3.45655,14.59063 10.27759,20.13836 6.80432,5.54133 15.10169,8.34937 24.66504,8.34937 6.14978,0 12.01688,-1.59601 17.43718,-4.74719 4.1499,-2.40723 7.4487,-5.37714 9.8429,-8.86573 -0.062,1.357 -0.092,2.83094 -0.092,4.40491 v 3.49976 c 0,0.73816 0.062,1.55169 0.1776,2.33471 v 1.95295 h 5.1368 v -54.49347 z m 0.1806,27.57946 c 0,6.64197 -2.8315,12.37616 -8.4159,17.04255 -5.5908,4.66699 -12.39839,7.03259 -20.23206,7.03259 -7.86664,0 -14.67103,-2.37409 -20.22242,-7.05774 -5.54809,-4.67749 -8.36316,-10.43671 -8.36316,-17.1203 0,-6.68103 2.79554,-12.50427 8.30756,-17.30786 5.51184,-4.79468 12.23407,-7.22681 19.98224,-7.22681 8.06378,0 14.97974,2.39899 20.55104,7.12964 5.5677,4.73651 8.3927,10.62647 8.3927,17.50793 z"
   id="path54" />
		<rect
   x="947.81873"
   y="568.84473"
   class="st1"
   width="5.2554078"
   height="10.09857"
   id="rect56" />
		<path
   class="st1"
   d="m 931.00653,602.09167 c -2.7428,-3.95355 -6.29132,-7.1911 -10.57971,-9.65368 -5.22241,-2.99512 -11.02039,-4.51367 -17.2359,-4.51367 -9.43207,0 -17.61792,2.82782 -24.32361,8.40539 -6.70569,5.58081 -10.10645,12.4599 -10.10645,20.44208 0,7.8147 3.39118,14.591 10.08051,20.13782 6.67902,5.54168 14.77283,8.35028 24.05377,8.35028 6.61023,0 12.85822,-1.63001 18.5708,-4.84253 4.24628,-2.38788 7.41992,-5.25726 9.48194,-8.56458 l -0.19129,12.13947 h 5.56488 v -75.3465 h -5.31494 z m 0,14.22327 c 0,6.90375 -2.75903,12.79102 -8.19842,17.49664 -5.43293,4.70014 -12.26362,7.08503 -20.29804,7.08503 -8.07739,0 -14.93738,-2.36829 -20.39038,-7.03766 -5.45563,-4.67249 -8.22473,-10.54273 -8.22473,-17.44385 0,-6.7619 2.82501,-12.53467 8.39624,-17.15662 5.57397,-4.62237 12.49731,-6.96814 20.58014,-6.96814 7.67602,0 14.35534,2.37629 19.8548,7.06263 5.49499,4.68902 8.28039,10.39508 8.28039,16.96197 z"
   id="path58" />
	</g>
	<path
   class="st1"
   d="m 212.14633,618.54285 h 89.06049 c 5.25363,0 9.8197,-0.72205 13.71283,-2.16272 3.8898,-1.44068 5.83615,-3.81433 5.83615,-7.12397 0,-2.77569 -1.46118,-4.85864 -4.37775,-6.24804 -2.91647,-1.38635 -6.51642,-2.29383 -10.79672,-2.71869 h -54.26651 c -7.5905,0 -14.64206,-0.66773 -21.15857,-2.00275 -6.51962,-1.33545 -12.25166,-3.33819 -17.21179,-6.00561 -4.96112,-2.66773 -8.99835,-5.95117 -12.11057,-9.84833 -3.11488,-3.89722 -4.95701,-8.35376 -5.54261,-13.37207 v -4.64472 c 1.94268,-10.03381 7.87669,-17.74841 17.79783,-23.13751 9.92081,-5.39221 22.65753,-8.08856 38.22571,-8.08856 h 134.01556 l -37.66363,24.33881 H 258.6058 c -5.25009,0 -9.82304,0.7221 -13.71283,2.16278 -3.89257,1.44378 -5.83615,3.82007 -5.83615,7.12665 0,2.7788 1.41108,4.91302 4.23343,6.40496 2.81504,1.49775 6.36765,2.40216 10.64839,2.72449 h 54.56237 c 15.36334,0 28.15692,2.64191 38.36758,7.92584 10.21378,5.28345 16.09415,13.0011 17.6532,23.14057 v 4.64435 c -1.94635,10.03417 -7.87714,17.74841 -17.79794,23.14062 -9.92127,5.3891 -22.66431,8.08539 -38.22284,8.08539 H 174.48222 Z m 161.1044,-42.59528 h 105.91553 c 5.25052,0 9.82025,-0.72174 13.71326,-2.16241 3.88937,-1.44373 5.83603,-3.763 5.83603,-6.96704 0,-3.30658 -1.94666,-5.68287 -5.83603,-7.12665 -3.89301,-1.44068 -8.46274,-2.16278 -13.71326,-2.16278 H 373.25073 l 37.66364,-24.33881 h 75.54608 c 15.56207,0 28.30511,2.69635 38.22272,8.08856 9.92138,5.3891 15.8518,13.1037 17.80163,23.13751 v 4.64472 c -1.56274,10.35614 -7.49298,18.15051 -17.80163,23.37732 -10.31153,5.23535 -12.02582,7.85144 -30.11304,7.85144 l 48.4939,42.59491 H 490.54556 L 428.10617,600.28943 H 416.4342 v 42.59491 h -43.18347 z m 250.32343,40.35272 -40.84955,-83.11041 h -43.18305 l 54.85529,109.69446 h 58.06171 l 74.70782,-148.47775 h -42.30786 z"
   id="path62" />
	<polyline
   class="st1"
   points="752.9686279,537.7879028 721.7198486,468.8313904 640.3240967,495.2986145  "
   id="polyline64" />
</g>
</svg>
