<svg xmlns="http://www.w3.org/2000/svg" width="68" height="68" viewBox="0 0 68 68">
  <g id="consulting" transform="translate(-12524 669)">
    <rect id="Rectangle_539" data-name="Rectangle 539" width="68" height="68" transform="translate(12524 -669)" fill="none"/>
    <g id="consulting-services" transform="translate(12526 -667)">
      <path id="Path_889" data-name="Path 889" d="M17,29A12,12,0,1,0,29,41,12.013,12.013,0,0,0,17,29Zm0,22a9.964,9.964,0,0,1-7.3-3.189,7.947,7.947,0,0,1,14.6,0A9.964,9.964,0,0,1,17,51ZM14,38a3,3,0,1,1,3,3A3,3,0,0,1,14,38Zm11.645,8a10.031,10.031,0,0,0-5.214-4.385,5,5,0,1,0-6.862,0A10.026,10.026,0,0,0,8.355,46a10,10,0,1,1,17.29,0Z" fill="#e84625"/>
      <path id="Path_890" data-name="Path 890" d="M51,1H43A12.013,12.013,0,0,0,31,13V25H6a5.006,5.006,0,0,0-5,5V52a5.006,5.006,0,0,0,5,5H23.532l4.087,4.9A3.043,3.043,0,0,0,33,59.957V57h9.08A7,7,0,0,0,49,63h4a7.008,7.008,0,0,0,7-7V30.576A5,5,0,0,0,63,26V13A12.013,12.013,0,0,0,51,1ZM44,5V3h6V5ZM33,13a10.013,10.013,0,0,1,9-9.949V5.232A9.01,9.01,0,0,0,35,14v5h2V29H36a3,3,0,0,1-3-3Zm7,6a1,1,0,0,1,1,1v8a1,1,0,0,1-1,1H39V19ZM31,55v4.957a1.044,1.044,0,0,1-1.845.668L24.468,55H6a3,3,0,0,1-3-3V30a3,3,0,0,1,3-3H31.1A5.009,5.009,0,0,0,36,31h4a3,3,0,0,0,3-3V27h1a3,3,0,0,1,3,3V52a3,3,0,0,1-3,3Zm27,1a5.006,5.006,0,0,1-5,5H49a5.008,5.008,0,0,1-4.9-4.01A5,5,0,0,0,49,52V30a5.006,5.006,0,0,0-5-5H43V20a3,3,0,0,0-3-3H37V14a7.008,7.008,0,0,1,7-7h6a7.008,7.008,0,0,1,7,7v3H54a3,3,0,0,0-3,3v8a3,3,0,0,0,3,3h4ZM54,29a1,1,0,0,1-1-1V20a1,1,0,0,1,1-1h1V29Zm7-3a3,3,0,0,1-3,3H57V19h2V14a9.01,9.01,0,0,0-7-8.768V3.051A10.013,10.013,0,0,1,61,13Z" fill="#e84625"/>
      <path id="Path_891" data-name="Path 891" d="M33,41H43a2,2,0,0,0,2-2V35a2,2,0,0,0-2-2H33a2,2,0,0,0-2,2v4A2,2,0,0,0,33,41Zm0-6H43v4H33Z" fill="#e84625"/>
      <path id="Path_892" data-name="Path 892" d="M31,43H45v2H31Z" fill="#e84625"/>
      <path id="Path_893" data-name="Path 893" d="M31,47H45v2H31Z" fill="#e84625"/>
      <path id="Path_894" data-name="Path 894" d="M43,51h2v2H43Z" fill="#e84625"/>
      <path id="Path_895" data-name="Path 895" d="M31,51H41v2H31Z" fill="#e84625"/>
      <path id="Path_896" data-name="Path 896" d="M5,51H7v2H5Z" fill="#e84625"/>
      <path id="Path_897" data-name="Path 897" d="M5,29H7v2H5Z" fill="#e84625"/>
      <path id="Path_898" data-name="Path 898" d="M13,6a3,3,0,1,1,4.8,2.4L15,10.5V15h2V11.5L19,10a5,5,0,1,0-8-4V7h2Z" fill="#e84625"/>
      <path id="Path_899" data-name="Path 899" d="M13,20a3,3,0,1,0,3-3A3,3,0,0,0,13,20Zm4,0a1,1,0,1,1-1-1A1,1,0,0,1,17,20Z" fill="#e84625"/>
    </g>
  </g>
</svg>
