<svg xmlns="http://www.w3.org/2000/svg" width="68" height="68" viewBox="0 0 68 68">
  <g id="digital_analytics" data-name="digital analytics" transform="translate(-12524 419)">
    <rect id="Rectangle_540" data-name="Rectangle 540" width="68" height="68" transform="translate(12524 -419)" fill="none"/>
    <g id="data-analytics" transform="translate(12526 -417)">
      <path id="Path_939" data-name="Path 939" d="M61,56H60V20a1,1,0,0,0-1-1H43.294a30.391,30.391,0,0,0,1.553-7H50a1,1,0,0,0,.707-1.707l-8-8a1,1,0,0,0-1.414,0l-8,8A1,1,0,0,0,34,12h3.157A21.6,21.6,0,0,1,32.2,19H5a1,1,0,0,0-1,1V56H3a1,1,0,0,0-1,1v2a3,3,0,0,0,3,3H59a3,3,0,0,0,3-3V57A1,1,0,0,0,61,56ZM39.576,11.341A1,1,0,0,0,38.636,10H36.414L42,4.414,47.586,10h-3.66a1,1,0,0,0-1,.934A28.77,28.77,0,0,1,18.1,37.445l-3.1.412V26.891a23.907,23.907,0,0,0,24.576-15.55ZM6,21H29.729a21.753,21.753,0,0,1-15.365,3.806l-.228-.032A1,1,0,0,0,13,25.766V39a1,1,0,0,0,1,1,.975.975,0,0,0,.132-.009l4.228-.563A30.779,30.779,0,0,0,42.515,21H58V56H56V24a1,1,0,0,0-1-1H44v2H54V56H10V25h2V23H9a1,1,0,0,0-1,1V56H6ZM60,59a1,1,0,0,1-1,1H5a1,1,0,0,1-1-1V58H60Z" fill="#e84625"/>
      <path id="Path_940" data-name="Path 940" d="M12,55H52V53H48V30a1,1,0,0,0-1-1H41a1,1,0,0,0-1,1V53H36V38a1,1,0,0,0-1-1H29a1,1,0,0,0-1,1V53H24V43a1,1,0,0,0-1-1H17a1,1,0,0,0-1,1V53H12ZM42,31h4V53H42ZM30,39h4V53H30ZM18,44h4v9H18Z" fill="#e84625"/>
      <path id="Path_941" data-name="Path 941" d="M27,2h2V4H27Z" fill="#e84625"/>
      <path id="Path_942" data-name="Path 942" d="M29,4h2V6H29Z" fill="#e84625"/>
      <path id="Path_943" data-name="Path 943" d="M27,6h2V8H27Z" fill="#e84625"/>
      <path id="Path_944" data-name="Path 944" d="M25,4h2V6H25Z" fill="#e84625"/>
      <path id="Path_945" data-name="Path 945" d="M23,10h2v2H23Z" fill="#e84625"/>
      <path id="Path_946" data-name="Path 946" d="M60,12h2v2H60Z" fill="#e84625"/>
      <path id="Path_947" data-name="Path 947" d="M58,14h2v2H58Z" fill="#e84625"/>
      <path id="Path_948" data-name="Path 948" d="M56,12h2v2H56Z" fill="#e84625"/>
      <path id="Path_949" data-name="Path 949" d="M58,10h2v2H58Z" fill="#e84625"/>
      <path id="Path_950" data-name="Path 950" d="M54,6h2V8H54Z" fill="#e84625"/>
      <path id="Path_951" data-name="Path 951" d="M18,32H16v3a1,1,0,0,0,1,1,18.43,18.43,0,0,0,9.555-3.168l-1.11-1.664A17.082,17.082,0,0,1,18,33.95Z" fill="#e84625"/>
      <path id="Path_952" data-name="Path 952" d="M16,28h2v2H16Z" fill="#e84625"/>
    </g>
  </g>
</svg>
