<svg xmlns="http://www.w3.org/2000/svg" width="68" height="68" viewBox="0 0 68 68">
  <g id="branding" transform="translate(-11982 1174)">
    <rect id="Rectangle_525" data-name="Rectangle 525" width="68" height="68" transform="translate(11982 -1174)" fill="none"/>
    <g id="branding-2" data-name="branding" transform="translate(11988 -1172.457)">
      <path id="Path_858" data-name="Path 858" d="M312.229,142.3a3.537,3.537,0,1,0,3.536,3.537A3.54,3.54,0,0,0,312.229,142.3Zm0,5.7a2.159,2.159,0,1,1,2.159-2.159A2.162,2.162,0,0,1,312.229,147.995Z" transform="translate(-270.048 -119.711)" fill="#e84625" stroke="#e84625" stroke-linecap="round" stroke-width="0.1"/>
      <circle id="Ellipse_213" data-name="Ellipse 213" cx="0.953" cy="0.953" r="0.953" transform="translate(41.229 25.172)" fill="#e84625" stroke="#e84625" stroke-linecap="round" stroke-width="0.1"/>
      <path id="Path_859" data-name="Path 859" d="M42.08,324.909a3.537,3.537,0,1,0,3.537,3.537A3.54,3.54,0,0,0,42.08,324.909Zm0,5.7a2.159,2.159,0,1,1,2.159-2.159A2.162,2.162,0,0,1,42.08,330.6Z" transform="translate(-33.718 -279.46)" fill="#e84625" stroke="#e84625" stroke-linecap="round" stroke-width="0.1"/>
      <circle id="Ellipse_214" data-name="Ellipse 214" cx="0.953" cy="0.953" r="0.953" transform="translate(7.409 48.033)" fill="#e84625" stroke="#e84625" stroke-linecap="round" stroke-width="0.1"/>
      <path id="Path_860" data-name="Path 860" d="M120.383,32.84a3.537,3.537,0,1,0,3.537,3.537A3.54,3.54,0,0,0,120.383,32.84Zm0,5.7a2.159,2.159,0,1,1,2.159-2.159A2.162,2.162,0,0,1,120.383,38.536Z" transform="translate(-102.219 -23.955)" fill="#e84625" stroke="#e84625" stroke-linecap="round" stroke-width="0.1"/>
      <circle id="Ellipse_215" data-name="Ellipse 215" cx="0.953" cy="0.953" r="0.953" transform="translate(17.212 11.469)" fill="#e84625" stroke="#e84625" stroke-linecap="round" stroke-width="0.1"/>
      <path id="Path_861" data-name="Path 861" d="M215.465,321.079h-7.13a.689.689,0,0,0,0,1.377h7.13a.689.689,0,0,0,0-1.377Z" transform="translate(-181.651 -276.109)" fill="#e84625" stroke="#e84625" stroke-linecap="round" stroke-width="0.1"/>
      <path id="Path_862" data-name="Path 862" d="M215.465,348.369h-7.13a.689.689,0,0,0,0,1.377h7.13a.689.689,0,0,0,0-1.377Z" transform="translate(-181.651 -299.983)" fill="#e84625" stroke="#e84625" stroke-linecap="round" stroke-width="0.1"/>
      <path id="Path_863" data-name="Path 863" d="M215.465,375.66h-7.13a.689.689,0,0,0,0,1.377h7.13a.689.689,0,0,0,0-1.377Z" transform="translate(-181.651 -323.857)" fill="#e84625" stroke="#e84625" stroke-linecap="round" stroke-width="0.1"/>
      <path id="Path_864" data-name="Path 864" d="M53.452,20.46H47.426V15.988a.689.689,0,0,0-.2-.487L37.38,5.659a.689.689,0,0,0-.487-.2H12.126a.688.688,0,0,0-.689.689V38.582H.689A.688.688,0,0,0,0,39.271V58.7a.688.688,0,0,0,.689.689H39.161a.688.688,0,0,0,.689-.689V54.071h6.887a.688.688,0,0,0,.689-.689V31.79h6.027A1.848,1.848,0,0,0,55.3,29.943V22.307A1.848,1.848,0,0,0,53.452,20.46ZM37.582,7.808,45.075,15.3H37.582Zm.891,50.2H1.377V39.959h37.1Zm7.576-5.318h-6.2V39.271a.688.688,0,0,0-.689-.689H12.815V6.834H36.2v9.154a.688.688,0,0,0,.689.689h9.155V20.46H38.388a1.848,1.848,0,0,0-1.846,1.846v7.637a1.848,1.848,0,0,0,1.846,1.846h7.661v20.9Zm7.873-22.751a.47.47,0,0,1-.469.469H38.388a.47.47,0,0,1-.469-.469V22.307a.47.47,0,0,1,.469-.469H53.452a.47.47,0,0,1,.469.469Z" fill="#e84625" stroke="#e84625" stroke-linecap="round" stroke-width="0.1"/>
      <path id="Path_865" data-name="Path 865" d="M376.533,155.556h-4.456a.689.689,0,1,0,0,1.377h4.456a.689.689,0,1,0,0-1.377Z" transform="translate(-324.894 -131.308)" fill="#e84625" stroke="#e84625" stroke-linecap="round" stroke-width="0.1"/>
      <path id="Path_866" data-name="Path 866" d="M376.533,174.54h-4.456a.689.689,0,1,0,0,1.377h4.456a.689.689,0,1,0,0-1.377Z" transform="translate(-324.894 -147.915)" fill="#e84625" stroke="#e84625" stroke-linecap="round" stroke-width="0.1"/>
      <path id="Path_867" data-name="Path 867" d="M46.136,60.126a.688.688,0,0,0,1.325,0l1.252-4.44a.689.689,0,0,0,.026-.187V32.147a.688.688,0,0,0-.689-.689h-2.5a.688.688,0,0,0-.689.689V55.5a.684.684,0,0,0,.026.187Zm.32-3.938h.685L46.8,57.4Zm.906-23.352V54.81H46.235V32.835Z" transform="translate(-39.242 -22.746)" fill="#e84625" stroke="#e84625" stroke-linecap="round" stroke-width="0.1"/>
      <path id="Path_868" data-name="Path 868" d="M.689,60.627h2.5a.688.688,0,0,0,.689-.689V36.587a.684.684,0,0,0-.026-.187L2.6,31.96a.688.688,0,0,0-1.325,0L.026,36.4A.684.684,0,0,0,0,36.587V59.939A.689.689,0,0,0,.689,60.627Zm.689-1.377V37.275H2.5V59.25ZM2.283,35.9H1.6l.342-1.214Z" transform="translate(0 -22.746)" fill="#e84625" stroke="#e84625" stroke-linecap="round" stroke-width="0.1"/>
    </g>
  </g>
</svg>
