<svg xmlns="http://www.w3.org/2000/svg" width="68" height="68" viewBox="0 0 68 68">
  <g id="web_development" data-name="web development" transform="translate(-11982 419)">
    <rect id="Rectangle_536" data-name="Rectangle 536" width="68" height="68" transform="translate(11982 -419)" fill="none"/>
    <g id="coding-setting-application-computer-currency" transform="translate(11984.003 -417)">
      <path id="Path_908" data-name="Path 908" d="M32,24a4,4,0,1,0,4,4A4,4,0,0,0,32,24Zm0,6a2,2,0,1,1,2-2A2,2,0,0,1,32,30Z" fill="#e84625"/>
      <path id="Path_909" data-name="Path 909" d="M61.83,60.45l-6-9A1,1,0,0,0,55,51H36.45A17.712,17.712,0,0,1,36,47.96,16.025,16.025,0,0,1,36.92,42H59a3.009,3.009,0,0,0,3-3V5a3.009,3.009,0,0,0-3-3H5A3.009,3.009,0,0,0,2,5V39a3.009,3.009,0,0,0,3,3H27.08A16,16,0,0,1,28,47.95,17.681,17.681,0,0,1,27.55,51H9a1,1,0,0,0-.83.45l-6,9a.963.963,0,0,0-.05,1.02A.984.984,0,0,0,3,62H61a.984.984,0,0,0,.88-.53.963.963,0,0,0-.05-1.02ZM60,36H53V25a1,1,0,0,0-1-1H49V22h6v4a1,1,0,0,0,1,1h4Zm0-11H57V21a1,1,0,0,0-1-1H49V18h3a1,1,0,0,0,1-1V10h7ZM4,5A1,1,0,0,1,5,4H59a1,1,0,0,1,1,1V8H52a1,1,0,0,0-1,1v7H49V7a1,1,0,0,0-1-1H16a1,1,0,0,0-1,1v4H13V9a1,1,0,0,0-1-1H4ZM41.24,25.03l-1.29-.32.69-1.15a1.014,1.014,0,0,0-.15-1.22l-2.83-2.83a1.014,1.014,0,0,0-1.22-.15l-1.15.69-.32-1.29A1,1,0,0,0,34,18H30a1,1,0,0,0-.97.76l-.32,1.29-1.15-.69a1.014,1.014,0,0,0-1.22.15l-2.83,2.83a1.014,1.014,0,0,0-.15,1.22l.69,1.15-1.29.32A1,1,0,0,0,22,26v1H17V8H47V27H42V26a1,1,0,0,0-.76-.97Zm-3.7,6.14.98,1.62-1.73,1.73-1.62-.98a1.057,1.057,0,0,0-.9-.07,1.02,1.02,0,0,0-.59.69L33.22,36H30.78l-.46-1.84a1,1,0,0,0-1.49-.62l-1.62.98-1.73-1.73.98-1.62a1,1,0,0,0-.62-1.49L24,29.22V26.78l1.84-.46a1,1,0,0,0,.62-1.49l-.98-1.62,1.73-1.73,1.62.98a1,1,0,0,0,1.49-.62L30.78,20h2.44l.46,1.84a1,1,0,0,0,1.49.62l1.62-.98,1.73,1.73-.98,1.62a1,1,0,0,0,.62,1.49l1.84.46v2.44l-1.84.46a1,1,0,0,0-.62,1.49ZM4,10h7v2a1,1,0,0,0,1,1h3v2H8a1,1,0,0,0-1,1v9H4ZM4,27H8a1,1,0,0,0,1-1V17h6v2H12a1,1,0,0,0-1,1V36H4ZM5,40a1,1,0,0,1-1-1V38h8a1,1,0,0,0,1-1V21h2v7a1,1,0,0,0,1,1h6v1a1,1,0,0,0,.76.97l1.29.32-.69,1.14a1.027,1.027,0,0,0,.15,1.23l2.83,2.83a1.014,1.014,0,0,0,1.22.15l1.15-.69.32,1.29A1,1,0,0,0,30,38h4a1,1,0,0,0,.97-.76l.32-1.29,1.15.69a1.014,1.014,0,0,0,1.22-.15l2.83-2.83a1.027,1.027,0,0,0,.15-1.23l-.69-1.14,1.29-.32A1,1,0,0,0,42,30V29h6a1,1,0,0,0,1-1V26h2V37a1,1,0,0,0,1,1h8v1a1,1,0,0,1-1,1ZM34.38,51H29.62A19.812,19.812,0,0,0,30,48.04,17.955,17.955,0,0,0,29.19,42h5.62A18.013,18.013,0,0,0,34,48.05,19.85,19.85,0,0,0,34.38,51ZM4.87,60l4.67-7H46.46l4.67,7Zm48.67,0-4.67-7h5.59l4.67,7Z" fill="#e84625"/>
      <path id="Path_910" data-name="Path 910" d="M9,57h2v2H9Z" fill="#e84625"/>
      <path id="Path_911" data-name="Path 911" d="M12,57h2v2H12Z" fill="#e84625"/>
      <path id="Path_912" data-name="Path 912" d="M15,57h2v2H15Z" fill="#e84625"/>
      <path id="Path_913" data-name="Path 913" d="M18,57h2v2H18Z" fill="#e84625"/>
      <path id="Path_914" data-name="Path 914" d="M21,57h2v2H21Z" fill="#e84625"/>
      <path id="Path_915" data-name="Path 915" d="M24,57h2v2H24Z" fill="#e84625"/>
      <path id="Path_916" data-name="Path 916" d="M27,57h2v2H27Z" fill="#e84625"/>
      <path id="Path_917" data-name="Path 917" d="M30,57h2v2H30Z" fill="#e84625"/>
      <path id="Path_918" data-name="Path 918" d="M33,57h2v2H33Z" fill="#e84625"/>
      <path id="Path_919" data-name="Path 919" d="M36,57h2v2H36Z" fill="#e84625"/>
      <path id="Path_920" data-name="Path 920" d="M39,57h2v2H39Z" fill="#e84625"/>
      <path id="Path_921" data-name="Path 921" d="M12,54h2v2H12Z" fill="#e84625"/>
      <path id="Path_922" data-name="Path 922" d="M15,54h2v2H15Z" fill="#e84625"/>
      <path id="Path_923" data-name="Path 923" d="M18,54h2v2H18Z" fill="#e84625"/>
      <path id="Path_924" data-name="Path 924" d="M21,54h2v2H21Z" fill="#e84625"/>
      <path id="Path_925" data-name="Path 925" d="M24,54h2v2H24Z" fill="#e84625"/>
      <path id="Path_926" data-name="Path 926" d="M27,54h2v2H27Z" fill="#e84625"/>
      <path id="Path_927" data-name="Path 927" d="M30,54h2v2H30Z" fill="#e84625"/>
      <path id="Path_928" data-name="Path 928" d="M33,54h2v2H33Z" fill="#e84625"/>
      <path id="Path_929" data-name="Path 929" d="M36,54h2v2H36Z" fill="#e84625"/>
      <path id="Path_930" data-name="Path 930" d="M39,54h2v2H39Z" fill="#e84625"/>
      <path id="Path_931" data-name="Path 931" d="M42,57h2v2H42Z" fill="#e84625"/>
      <path id="Path_932" data-name="Path 932" d="M42,54h2v2H42Z" fill="#e84625"/>
      <path id="Path_933" data-name="Path 933" d="M45,57h2v2H45Z" fill="#e84625"/>
      <path id="Path_934" data-name="Path 934" d="M19,10h2v2H19Z" fill="#e84625"/>
      <path id="Path_935" data-name="Path 935" d="M23,10h9v2H23Z" fill="#e84625"/>
      <path id="Path_936" data-name="Path 936" d="M34,10H45v2H34Z" fill="#e84625"/>
      <path id="Path_937" data-name="Path 937" d="M19,14H32v2H19Z" fill="#e84625"/>
      <path id="Path_938" data-name="Path 938" d="M34,14H45v2H34Z" fill="#e84625"/>
    </g>
  </g>
</svg>
