<?xml version="1.0" encoding="UTF-8" standalone="no"?>
<svg
xmlns:dc="http://purl.org/dc/elements/1.1/"
   xmlns:cc="http://creativecommons.org/ns#"
   xmlns:rdf="http://www.w3.org/1999/02/22-rdf-syntax-ns#"
   xmlns:svg="http://www.w3.org/2000/svg"
   xmlns="http://www.w3.org/2000/svg"
   xmlns:sodipodi="http://sodipodi.sourceforge.net/DTD/sodipodi-0.dtd"
   xmlns:inkscape="http://www.inkscape.org/namespaces/inkscape"
   version="1.0"
   id="Layer_1"
   x="0px"
   y="0px"
   xml:space="preserve"
   sodipodi:docname="srv-logo-loader.svg"

 viewBox="0 0 346.60129 100.18372">
   <defs>
      <linearGradient id="bottom-to-top" x1="0" x2="0" y1="1" y2="0">
         <stop offset="0" stop-color="#E84625">
            <animate id="gr1" dur="3s" begin="0s;gr1.end+1s" fill="freeze" attributeName="offset" from="0" to="1" ></animate>
         </stop>
         <stop offset="0" stop-color="#fff">
            <animate id="gr2" dur="3s" begin="0s;gr2.end+1s" fill="freeze" attributeName="offset" from="0" to="1" ></animate>
         </stop>

      </linearGradient>
      <linearGradient id="bottom-to-top-1" x1="0" x2="0" y1="1" y2="0">
         <stop offset="0" stop-color="#858585">
            <animate id="gr3" dur="3s" begin="0s;gr3.end+1s" fill="freeze" attributeName="offset" from="0" to="1" ></animate>
         </stop>
         <stop offset="0" stop-color="#fff">
            <animate id="gr4" dur="3s" begin="0s;gr4.end+1s" fill="freeze" attributeName="offset" from="0" to="1" ></animate>
         </stop>

      </linearGradient>
   </defs>
   <g id="layer1" transform="translate(64.982108,-34.298563)">
      <path class="animated-path" id="Selection" fill="url(#bottom-to-top)" stroke="#E84625" stroke-width="2" stroke-dasharray="362.7900695800781"
         stroke-dashoffset="362.7900695800781"
         d="m -64.74277,96.349973 c 0.817677,-1.301932 5.104526,-3.67293 6.615509,-4.675841 0,0 6.615507,-4.136016 6.615507,-4.136016 0.653613,-0.219635 1.431596,-0.185234 2.116963,-0.185234 0,0 29.902097,0 29.902097,0 1.884097,-0.0026 5.63112,-0.333422 6.419689,-2.392168 1.153745,-3.016672 -4.016937,-3.691454 -5.890448,-3.6941 0,0 -17.200322,0 -17.200322,0 0,0 -3.175444,-0.240804 -3.175444,-0.240804 -3.199259,-0.219635 -5.908972,-0.341361 -8.997091,-1.463351 -4.450914,-1.61683 -8.936228,-4.741996 -8.99709,-9.939139 -0.111141,-9.928555 11.638001,-12.688545 19.581903,-12.701776 0,0 48.1609,0 48.1609,0 -0.64832,1.08759 -1.85234,1.675047 -2.91082,2.331305 0,0 -4.23393,2.746759 -4.23393,2.746759 -1.36279,0.846785 -5.10717,3.50622 -6.35089,3.88198 -0.53453,0.05822 -1.29399,0.03705 -1.85234,0 0,0 -29.637476,0 -29.637476,0 -1.987298,0.03969 -6.37735,0.463086 -6.819266,2.947871 -0.500132,2.804975 4.710242,3.437418 6.554646,3.440064 0,0 15.87722,0 15.87722,0 0,0 3.969304,0 3.969304,0 4.019583,0.0053 9.875632,1.341625 13.231022,3.577667 6.04922,4.03546 6.4435,11.553323 0.79386003,16.144486 -3.68616003,2.995502 -10.14025503,4.337127 -14.81874203,4.358297 0,0 -48.954761,0 -48.954761,0 z">
         <animate id="an1" attributeName="stroke-dashoffset" fill="freeze" begin="0s;an1.end+1s" values="362.7900695800781;0" dur="3s" >
         </animate>
      </path>
      <path class="animated-path" id="Selection #1" fill="url(#bottom-to-top)" stroke="#E84625" stroke-width="2"
         d="m 12.414348,65.651541 c 0,0 8.997091,-5.821647 8.997091,-5.821647 2.455677,-1.619477 3.575021,-2.905531 6.615509,-2.910824 0,0 25.932793,0 25.932793,0 4.97751,0.05822 11.15904,1.293994 15.07277,4.501192 1.07965,0.883832 1.99524,1.963483 2.68855,3.172798 0.500131,0.873247 1.039951,2.183117 1.206661,3.175444 0.93147,5.578196 -3.101351,9.068538 -7.589311,11.312519 -2.45303,1.227838 -3.79201,1.905266 -6.61551,1.918497 0,0 -2.11696,0 -2.11696,0 0,0 4.76317,4.572639 4.76317,4.572639 0,0 7.93861,6.996562 7.93861,6.996562 0,0 3.969301,3.778778 3.969301,3.778778 0,0 -16.935701,0 -16.935701,0 -0.68537,0 -1.46335,0.0344 -2.11696,-0.185234 -1.11405,-0.370469 -4.87695,-3.135751 -6.08627,-3.95872 0,0 -11.643293,-7.941256 -11.643293,-7.941256 -1.960837,-1.307225 -3.664991,-2.982272 -6.086267,-2.998149 0,0 -2.381583,0 -2.381583,0 0,0 0,15.083359 0,15.083359 0,0 -15.6126,0 -15.6126,0 0,0 0,-24.08045 0,-24.08045 0,0 37.046843,0 37.046843,0 2.05081,-0.0026 6.70019,-0.325483 7.46759,-2.651496 0.32813,-1.000264 -0.3493,-1.90262 -1.12728,-2.455676 -1.43689,-1.021435 -4.08574,-1.24107 -5.81107,-1.243716 0,0 -26.197409,0 -26.197409,0 0,0 -7.409369,0 -7.409369,0 -1.201376,0 -2.876423,0.169357 -3.969305,-2 z"
         stroke-dashoffset="313.0278015136719" stroke-dasharray="313.0278015136719">
         <animate id="an2" attributeName="stroke-dashoffset" fill="freeze" begin="0s;an2.end+1s" values="313.0278015136719;0" dur="3s" >
         </animate>
      </path>
      <path class="animated-path" id="Selection #2" fill="url(#bottom-to-top)" stroke="#E84625" stroke-width="2"
         d="m 114.58941,43.690528 c 0,0 6.88012,-2.468908 6.88012,-2.468908 0,0 15.08336,-4.940461 15.08336,-4.940461 0,0 5.29241,-1.698863 5.29241,-1.698863 0,0 1.94496,-0.145541 1.94496,-0.145541 0,0 1.04789,1.844404 1.04789,1.844404 0,0 2.07198,4.498545 2.07198,4.498545 0,0 5.48294,12.172535 5.48294,12.172535 0,0 2.41862,5.821647 2.41862,5.821647 0,0 -5.55702,-1.93702 -5.55702,-1.93702 0,0 -8.73247,-3.355386 -8.73247,-3.355386 0,0 -5.22625,10.849433 -5.22625,10.849433 0,0 -11.24637,22.228108 -11.24637,22.228108 0,0 -3.30775,6.615508 -3.30775,6.615508 0,0 -1.75708,2.905531 -1.75708,2.905531 0,0 -2.01376,0.269913 -2.01376,0.269913 0,0 -16.67108,0 -16.67108,0 0,0 -2.013748,-0.269913 -2.013748,-0.269913 0,0 -1.624761,-2.640911 -1.624761,-2.640911 0,0 -3.043122,-6.086267 -3.043122,-6.086267 0,0 -10.05553,-20.111145 -10.05553,-20.111145 0,0 -4.96163,-10.320193 -4.96163,-10.320193 0,0 13.495606,0 13.495606,0 0,0 2.013751,0.269913 2.013751,0.269913 0,0 1.360141,2.11167 1.360141,2.11167 0,0 2.246608,4.498546 2.246608,4.498546 0,0 7.544315,15.347979 7.544315,15.347979 0,0 3.50622,7.144748 3.50622,7.144748 0,0 4.69701,-9.526331 4.69701,-9.526331 0,0 8.60016,-17.200322 8.60016,-17.200322 0,0 5.49087,-11.114053 5.49087,-11.114053 0,0 -5.82165,-2.005822 -5.82165,-2.005822 0,0 -7.14474,-2.757344 -7.14474,-2.757344 z"
         stroke-dashoffset="289.172607421875" stroke-dasharray="289.172607421875">
         <animate id="an3" attributeName="stroke-dashoffset" fill="freeze" begin="0s;an3.end+1s" values="289.172607421875;0" dur="3s" >
         </animate>
      </path>
      <path class="animated-path media-path" id="Selection #7" fill="url(#bottom-to-top)" stroke="#E84625" stroke-width="0.5"
         d="m 279.36991,92.079898 c -1.9185,1.89998 -3.42418,3.12252 -6.08627,3.83964 -5.89044,1.58772 -14.34506,-1.27018 -15.73961,-7.80894 -0.16407,-0.75946 -0.14554,-1.6036 -0.1376,-2.38159 0.0212,-1.82588 0.37046,-2.91876 1.29134,-4.49854 3.28923,-5.65229 11.06642,-6.75841 16.70284,-4.37682 1.83117,0.77534 2.86319,1.9476 4.23392,3.31834 0,0 0,-3.96931 0,-3.96931 0,0 1.85234,0 1.85234,0 0,0 0,19.58191 0,19.58191 0,0 -1.85234,0 -1.85234,0 0,0 -2,-3.70469 -2,-3.70469 z M 267.462,77.605168 c -1.59302,0.30167 -2.90024,0.76211 -4.23393,1.71739 -0.93675,0.66948 -1.99259,1.72797 -2.6118,2.70177 -0.91294,1.43689 -1.12993,2.83144 -1.09024,4.49854 0.11644,4.7076 4.8796,7.88569 9.25907,7.93861 3.5221,0.0397 6.17888,-0.44985 8.70601,-3.17809 4.21805,-4.55676 1.73591,-10.86795 -3.67822,-13.02725 -2.0217,-0.8071 -4.20747,-0.86531 -6.35089,-0.65097 z"
         stroke-dashoffset="149.9247283935547" stroke-dasharray="149.9247283935547">
         <animate id="an4" attributeName="stroke-dashoffset" fill="freeze" begin="0s;an4.end+1s" values="149.9247283935547;0" dur="3s" >
         </animate>
      </path>

      <path class="animated-path media-path" id="Selection #6" fill="url(#bottom-to-top)" stroke="#E84625" stroke-width="0.5"
         d="m 250.81377,69.358703 c 0,0 2.11696,0 2.11696,0 0,0 0,3.9693 0,3.9693 0,0 -2.11696,0 -2.11696,0 0,0 0,-3.9693 0,-3.9693 z m 0,7.40937 c 0,0 2.11696,0 2.11696,0 0,0 0,19.5819 0,19.5819 0,0 -2.11696,0 -2.11696,0 0,0 0,-19.5819 0,-19.5819 z"
         stroke-dashoffset="55.57023620605469" stroke-dasharray="55.57023620605469">
         <animate id="an5" attributeName="stroke-dashoffset" fill="freeze" begin="0s;an5.end+1s" values="55.57023620605469;0" dur="3s" >
         </animate>
      </path>
      <path class="animated-path media-path" id="Selection #5" fill="url(#bottom-to-top)" stroke="#E84625" stroke-width="0.5"
         d="m 242.63874,68.829216 c 0,0 2.11697,0 2.11697,0 0,0 0,26.99128 0,26.99128 0,0 -2.11697,0 -2.11697,0 0,0 -2,-3.70469 -2,-3.70469 -1.65123,2.93464 -6.07568,4.21805 -9.26171,4.23393 -3.54326,0.0159 -6.48849,-0.75946 -9.23789,-3.12517 -3.84758,-3.3104 -4.53295,-9.05531 -1.2596,-13.01667 1.04261,-1.26224 2.16989,-2.20958 3.61736,-2.96904 1.82059,-0.95264 4.03017,-1.50569 6.08627,-1.52951 4.85843,-0.0556 6.92511,1.10611 10.32019,4.49855 0,0 0,-11.37868 0,-11.37868 z m -11.64329,8.80921 c -2.24927,0.37312 -4.41916,1.21461 -6.06245,2.8579 -0.67214,0.67478 -1.24636,1.48981 -1.638,2.35777 -2.74412,6.09685 2.71765,11.57185 8.75893,11.64329 2.01905,0.0238 3.38979,-0.005 5.29241,-0.83884 5.07806,-2.22811 7.29293,-8.5393 3.276,-12.84467 -2.70178,-2.8976 -5.84017,-3.53533 -9.62689,-3.17545 z"
         stroke-dashoffset="164.96664428710938" stroke-dasharray="164.96664428710938">
         <animate id="an6" attributeName="stroke-dashoffset" fill="freeze" begin="0s;an6.end+1s" values="164.96664428710938;0" dur="3s" >
         </animate>
      </path>
      <path class="animated-path media-path" id="Selection #4" fill="url(#bottom-to-top)" stroke="#E84625" stroke-width="0.5"
         d="m 216.29695,89.509543 c -1.59301,3.56443 -5.11246,6.24239 -8.99709,6.84043 0,0 -3.44006,0 -3.44006,0 -5.43266,-0.0265 -11.04261,-3.95872 -11.11406,-9.75126 0,0 0,-1.3231 0,-1.3231 0.0926,-7.64753 10.89442,-11.55861 17.72957,-8.38317 2.79703,1.29929 5.35856,3.74173 6.14977,6.79545 0,0 0.46573,2.91082 0.46573,2.91082 0,0 -22.2281,0 -22.2281,0 0.56628,6.71871 8.65837,9.55544 14.28949,7.05213 3.88992,-1.72797 3.14634,-4.12543 7.14475,-4.1413 z m -1.58772,-4.76317 c -2.91876,-9.7592 -17.29294,-9.45224 -19.84652,0 0,0 19.84652,0 19.84652,0 z"
         stroke-dashoffset="163.4788818359375" stroke-dasharray="163.4788818359375">
         <animate id="an7" attributeName="stroke-dashoffset" fill="freeze" begin="0s;an7.end+1s" values="163.4788818359375;0" dur="3s" >
         </animate>
      </path>
      <path class="animated-path media-path" id="Selection #3" fill="url(#bottom-to-top)" stroke="#E84625" stroke-width="0.5"
         d="m 157.31447,78.885033 c 4.39799,-3.93226 11.97142,-3.38449 14.55412,1.3231 0,0 0.52924,0 0.52924,0 2.2678,-4.18629 9.06325,-5.00132 12.9664,-2.77057 1.14051,0.65096 2.10902,1.65123 2.7838,2.77057 0.99233,1.6433 1.18285,3.4189 1.1855,5.29241 0,0 0,10.84943 0,10.84943 0,0 -2.11696,0 -2.11696,0 0,0 0,-10.58481 0,-10.58481 -0.003,-1.93437 -0.16936,-3.44006 -1.42631,-5.02779 -2.96904,-3.74967 -8.97592,-3.60677 -11.54273,0.52925 -0.78593,1.26753 -0.78857,2.27838 -0.79122,3.70468 0,0 0,11.37867 0,11.37867 0,0 -2.11696,0 -2.11696,0 0,0 0,-8.73247 0,-8.73247 0,-2.42392 0.13495,-4.56734 -1.46335,-6.61286 -3.05107,-3.9005 -9.38608,-4.03546 -11.8841,0.5266 -0.67214,1.22254 -0.67478,2.36041 -0.67743,3.70468 0,0 0,11.11405 0,11.11405 0,0 -2.11696,0 -2.11696,0 0,0 0,-19.84652 0,-19.84652 0,0 2.11696,0 2.11696,0 0,0 0,2.38158 0,2.38158 z"
         stroke-dashoffset="171.9653778076172" stroke-dasharray="171.9653778076172">
         <animate id="an8" attributeName="stroke-dashoffset" fill="freeze" begin="0s;an8.end+1s" values="171.9653778076172;0" dur="3s" >
         </animate>
      </path>
      <path class="insights-ideas-impact" id="Selection #8" fill="url(#bottom-to-top-1)" stroke="none" stroke-width="0.26462"
         d="m 73.468104,104.44062 c 0,0 1.587722,0 1.587722,0 0,0 0,19.05266 0,19.05266 0,0 -1.587722,0 -1.587722,0 0,0 0,-19.05266 0,-19.05266 z m 68.007386,0 c 0,0 1.58772,0 1.58772,0 0,0 0,19.05266 0,19.05266 0,0 -1.58772,0 -1.58772,0 0,0 0,-19.05266 0,-19.05266 z m -103.731122,1.3231 c 0,0 1.587721,0 1.587721,0 0,0 0,5.82165 0,5.82165 0.59275,-0.52924 1.100821,-1.01614 1.852342,-1.32046 2.053453,-0.83091 4.683779,-0.005 5.517333,2.11432 0.510717,1.29928 0.304313,6.73723 0.304313,8.46785 0,0 -1.852342,0 -1.852342,0 0,-1.62477 0.259328,-6.4488 -0.383699,-7.66341 -1.172268,-2.20693 -3.778778,-1.75443 -4.866367,0.25933 -0.799153,1.47923 -0.57158,5.58878 -0.57158,7.40408 0,0 -1.587721,0 -1.587721,0 0,0 0,-15.08336 0,-15.08336 z m 60.333414,0 c 0,0 1.587711,0 1.587711,0 0,0 0,15.08336 0,15.08336 0,0 -1.587711,0 -1.587711,0 0,0 -0.264617,-1.85235 -0.264617,-1.85235 -1.405134,2.69913 -5.056893,2.60387 -7.134153,0.7383 -2.67002,-2.40011 -2.12226,-7.83276 1.31251,-9.33052 0.88383,-0.3837 1.95819,-0.47631 2.91083,-0.35723 1.484509,0.18523 2.132826,0.82297 3.17543,1.80471 0,0 0,-6.08627 0,-6.08627 z m -78.327593,0.52924 c 0,0 2.116962,0 2.116962,0 0,0 0,1.85234 0,1.85234 0,0 -2.116962,0 -2.116962,0 0,0 0,-1.85234 0,-1.85234 z m -26.726646,0.26462 c 0,0 1.852342,0 1.852342,0 0,0 0,14.2895 0,14.2895 0,0 -1.852342,0 -1.852342,0 0,0 0,-14.2895 0,-14.2895 z m 91.558609,0 c 0,0 1.85235,0 1.85235,0 0,0 0,14.2895 0,14.2895 0,0 -1.85235,0 -1.85235,0 0,0 0,-14.2895 0,-14.2895 z m 68.007388,0 c 0,0 1.85235,0 1.85235,0 0,0 0,14.2895 0,14.2895 0,0 -1.85235,0 -1.85235,0 0,0 0,-14.2895 0,-14.2895 z m -102.408019,0.52924 c 0,0 1.852341,0 1.852341,0 0,0 0,3.17545 0,3.17545 0,0 3.440064,0 3.440064,0 0,0 0,1.58772 0,1.58772 0,0 -3.440064,0 -3.440064,0 0,4.78169 -0.915586,8.13442 3.175444,7.14474 -0.01588,0.47632 0.02117,1.04261 -0.269913,1.45277 -0.928817,1.29929 -3.500926,0.46573 -4.204816,-0.67478 -0.860016,-1.38661 -0.553056,-6.10744 -0.553056,-7.92273 0,0 -1.323102,0 -1.323102,0 0,0 0,-1.58772 0,-1.58772 0,0 1.323102,0 1.323102,0 0,0 0,-3.17545 0,-3.17545 z m 162.212209,0 c 0,0 1.85234,0 1.85234,0 0,0 0,3.17545 0,3.17545 0,0 3.17544,0 3.17544,0 0,0 0,1.58772 0,1.58772 0,0 -3.17544,0 -3.17544,0 0,0 0,5.02778 0,5.02778 0.0159,0.82033 0.0238,1.64329 0.83355,2.11432 0.68272,0.38899 1.61419,0.13231 2.34189,0 -0.0159,0.47896 0.0212,1.04525 -0.26991,1.45541 -0.68801,0.96322 -3.44006,0.91029 -4.37417,-0.70918 -0.36782,-0.63509 -0.37312,-1.35486 -0.3837,-2.06669 0,0 0,-5.82164 0,-5.82164 0,0 -1.58772,0 -1.58772,0 0,0 0,-1.58772 0,-1.58772 0,0 1.58772,0 1.58772,0 0,0 0,-3.17545 0,-3.17545 z m -212.49005891,4.23393 c 0.69859694,-0.52395 1.25165291,-0.94999 2.11696191,-1.17492 0.481609,-0.12702 1.090235,-0.15612 1.587721,-0.1376 3.9772425,0.15083 3.7046838,3.42683 3.7046838,6.3403 0,0 0,4.49855 0,4.49855 0,0 -1.5877208,0 -1.5877208,0 0,-1.83118 0.272558,-6.208 -0.566288,-7.66341 -1.286054,-2.23339 -4.06986,-1.71738 -4.98809194,0.51866 -0.45250097,1.10082 -0.26726597,5.67875 -0.26726597,7.14475 0,0 -1.85234189,0 -1.85234189,0 0,0 0,-10.58481 0,-10.58481 0,0 1.85234189,0 1.85234189,0 0,0 0,1.05848 0,1.05848 z m 16.67107491,1.3231 c -0.931464,-0.39429 -2.426568,-1.17227 -3.440064,-0.96587 -0.928817,0.19053 -1.714739,1.03996 -0.960571,1.92115 1.116697,1.30193 4.456205,1.11405 5.080709,3.28923 1.246361,4.353 -4.691718,5.18126 -7.245303,3.1675 -0.9367554,-0.73829 -0.3916377,-1.64594 0.489547,-1.55861 0.320191,0.0344 0.748876,0.27256 1.047897,0.39693 1.103466,0.46573 2.918761,1.00556 3.760254,-0.23551 0.201111,-0.30167 0.269912,-0.61128 0.142895,-0.96057 -0.574226,-1.57979 -3.979889,-1.20667 -5.295052,-3.21249 -1.1299284,-1.72268 0.124371,-3.71263 1.921143,-4.27627 1.884096,-0.5901 3.585605,0.12702 5.292406,0.84679 0,0 -0.793861,1.58772 -0.793861,1.58772 z m 16.406457,5.82164 c -1.397195,1.06642 -2.410691,1.68828 -4.233925,1.56126 -5.813707,-0.39693 -6.263562,-8.3276 -1.323101,-9.88092 0.767399,-0.16935 1.857634,-0.20111 2.646203,0 1.251654,0.15877 1.950251,0.66155 2.910823,1.43954 0,0 0,-1.3231 0,-1.3231 0,0 1.852342,0 1.852342,0 0,0 0,5.82164 0,5.82164 0,2.96639 0.412807,6.60228 -3.175444,7.72691 -0.624504,0.19582 -1.206668,0.20376 -1.852342,0.2117 -2.574755,0.0291 -3.014025,-0.0317 -5.292405,-1.3231 0,0 0.52924,-1.3231 0.52924,-1.3231 1.802065,0.33606 6.464674,2.81026 7.766605,-1.3231 0.164065,-0.51866 0.158773,-1.05055 0.172004,-1.58773 z m 30.960572,-5.82164 c -0.960572,-0.40752 -2.389521,-1.17492 -3.440064,-0.93411 -0.746229,0.172 -1.608891,0.83091 -1.127282,1.6724 1.079651,1.8788 5.673459,0.84678 5.332098,4.81873 -0.28579,3.32893 -4.244509,3.26277 -6.583752,2.25457 -0.611273,-0.26198 -1.876158,-1.07171 -0.931463,-1.79677 0.537179,-0.41546 1.206668,0.0185 1.722678,0.23551 1.106112,0.46573 3.252183,1.03202 3.884625,-0.48426 0.370469,-0.89177 -0.560995,-1.46335 -1.238423,-1.76766 -1.428949,-0.64303 -3.088118,-0.71183 -4.038105,-2.15665 -1.717386,-2.61181 1.333686,-4.62821 3.773485,-4.4615 1.754432,0.11908 3.537973,0.56099 2.646203,2.61974 z m 39.957635,3.70468 c 0.55571,1.8841 2.09844,3.52474 4.23393,3.02461 0.95263,-0.22228 1.72797,-0.93146 2.3657,-0.95528 0.5954,-0.0238 1.02144,0.44721 0.76476,1.02408 -0.5266,1.18815 -3.98254,2.44509 -6.57052,1.03202 -2.40011,-1.31251 -3.01403,-3.97989 -2.55888,-6.50701 0.65096,-3.60942 5.24212,-5.21831 8.06827,-2.96375 1.63006,1.30193 1.88145,3.40302 1.89997,5.34533 0,0 -8.20323,0 -8.20323,0 z m 10.32019,-5.55702 c 1.14581,-0.25933 2.26251,-0.69066 3.44007,-0.71977 0.5901,-0.09 1.27282,-0.0635 1.85234,0 3.53268,0.733 3.17544,3.50886 3.17544,6.27679 0,0 0,4.49855 0,4.49855 0,0 -1.58772,0 -1.58772,0 0,0 0,-1.3231 0,-1.3231 -1.87351,1.61153 -4.46943,2.28631 -6.5864,0.62185 -1.83117,-1.43689 -1.39984,-4.65467 1.02938,-5.60995 0.93411,-0.36782 2.17518,-0.3149 3.17544,-0.30431 1.11405,0.0132 1.30987,0.0714 2.38158,0.26462 -1.3575,-3.78142 -3.29717,-2.80497 -6.35088,-2.11696 0,0 -0.52925,-1.58772 -0.52925,-1.58772 z m 17.72956,1.85234 c -0.93146,-0.39429 -2.42656,-1.17227 -3.44006,-0.96587 -0.92882,0.19053 -1.71474,1.03996 -0.96057,1.92115 1.07171,1.24636 4.1122,1.09023 5.03043,3.03784 0.19053,0.57158 0.20111,1.48452 0,2.0905 -0.60333,2.83937 -4.36094,2.62768 -6.4488,1.72797 -0.61127,-0.26198 -1.87615,-1.07171 -0.93146,-1.79677 0.38899,-0.30167 0.78857,-0.15084 1.19344,0 1.17491,0.43133 2.08521,1.16168 3.42948,0.59804 0.63244,-0.26727 1.24107,-0.80709 0.96321,-1.56126 -0.5213,-1.41043 -3.46652,-1.3919 -4.81873,-2.6171 -1.88939,-1.71209 -0.68008,-5.32945 3.33686,-5.05424 1.75443,0.11908 3.53797,0.56099 2.6462,2.61974 z m 27.52051,-1.3231 c 1.99259,-1.61154 4.99603,-2.17783 6.35089,0.52924 0.57423,-0.54247 1.13522,-1.10876 1.85234,-1.46865 0.73565,-0.36782 1.57449,-0.41545 2.38159,-0.37311 3.35273,0.17465 3.69939,3.13046 3.70468,5.81106 0,0 0,5.02779 0,5.02779 0,0 -1.85234,0 -1.85234,0 0,-1.41308 0.11908,-5.79519 -0.19053,-6.88013 -0.28314,-0.98703 -1.10611,-2.07198 -2.19106,-2.21752 -1.13522,-0.15348 -2.33395,0.96322 -2.715,1.9529 -0.34401,0.89706 -0.19582,5.84281 -0.19582,7.14475 0,0 -1.85234,0 -1.85234,0 0,-1.87087 0.34401,-6.46732 -0.5901,-7.91215 -1.48982,-2.30749 -4.65203,-1.1511 -4.70231,2.35512 0,0 0,5.55703 0,5.55703 0,0 -1.85234,0 -1.85234,0 0,0 0,-10.58481 0,-10.58481 0,0 1.85234,0 1.85234,0 0,0 0,1.05848 0,1.05848 z m 19.05266,0.52924 c 1.38926,-2.47949 5.22361,-2.33395 7.08918,-0.47367 3.06166,3.05107 1.54803,9.38343 -3.11987,9.70891 -1.81794,0.12702 -2.84202,-0.50013 -4.23393,-1.56125 0,0 0,4.49854 0,4.49854 0,0 -1.85234,0 -1.85234,0 0,0 0,-13.76025 0,-13.76025 0,0 1.85234,0 1.85234,0 0,0 0.26462,1.58772 0.26462,1.58772 z m 11.33369,0.52924 c -0.0397,-0.38635 -0.19317,-0.82033 0,-1.21196 0.17994,-0.59011 1.08494,-0.79651 1.63271,-0.93147 1.70151,-0.4181 4.10161,-0.35459 5.41677,0.96058 1.73062,1.73326 1.19873,7.19767 1.19873,9.6507 0,0 -1.85234,0 -1.85234,0 0,0 0,-1.05848 0,-1.05848 -1.37867,0.88647 -2.26515,1.41571 -3.9693,1.29663 -3.99577,-0.27785 -4.44298,-3.99047 -2.80762,-5.70521 0.94734,-0.99232 2.04816,-1.13257 3.33686,-1.14845 1.57449,-0.0185 1.88409,-0.0132 3.44006,0.26462 -0.81767,-3.84493 -3.68616,-2.59063 -6.39587,-2.11696 z m 19.09765,0.79386 c -1.20403,-0.53718 -2.30749,-1.61154 -3.70469,-1.50834 -2.24662,0.16936 -4.5991,3.48505 -2.43451,6.22387 0.71183,0.89706 2.05346,1.65917 3.22837,1.47129 1.30723,-0.2117 2.05081,-1.33898 2.86849,-1.07171 1.06112,0.3493 0.28579,1.45012 -0.23816,1.85763 -1.00821,0.78857 -2.4398,1.03731 -3.68881,0.94205 -4.18894,-0.32284 -6.34559,-5.2924 -4.04869,-8.70865 1.20138,-1.78619 3.02726,-2.46097 5.10717,-2.371 1.0135,0.045 3.30246,0.61921 3.4136,1.86557 0.0397,0.47897 -0.28314,0.90765 -0.50277,1.29929 z M 19.750189,110.26227 c 0,0 1.852342,0 1.852342,0 0,0 0,10.58481 0,10.58481 0,0 -1.582429,-0.4234 -1.582429,-0.4234 0,0 -0.269913,-1.69357 -0.269913,-1.69357 0,0 0,-8.46784 0,-8.46784 z m 8.997089,1.41307 c -1.116697,0.29902 -1.947605,0.68007 -2.495369,1.77295 -1.23313,2.45833 0.915586,5.31358 3.55385,4.92723 4.667902,-0.68272 4.122784,-7.18444 -1.058481,-6.70018 z m 65.096584,0 c -1.26488,0.30696 -2.1196,0.74887 -2.64355,2.02699 -1.02408,2.49272 0.63509,6.25298 3.70204,5.67081 4.458834,-0.84678 4.109534,-8.03916 -1.05849,-7.6978 z m 16.406438,3.08547 c -0.21699,-0.91294 -0.42075,-1.63535 -1.1167,-2.32072 -1.77031,-1.74649 -4.6335,-0.83091 -5.23419,2.32072 0,0 6.35089,0 6.35089,0 z m 70.91824,-3.06695 c -1.17756,0.37047 -2.25192,1.06377 -2.71501,2.27309 -1.00555,2.61974 1.06378,6.01746 4.03811,5.37179 4.21275,-0.91559 3.70204,-8.10267 -1.3231,-7.64488 z m -63.50887,3.9402 c -0.68537,0.1376 -1.44483,0.25668 -1.92114,0.82826 -1.1564,1.38396 0.14554,2.88436 1.65652,3.03255 3.02196,0.29637 4.05398,-2.39217 3.43742,-3.21779 -0.51072,-0.68536 -2.39482,-0.70389 -3.1728,-0.64302 z m 75.15216,0.008 c -0.57952,0.14289 -1.06113,0.24345 -1.54803,0.62715 -1.66182,1.30193 -0.41016,3.77613 2.60651,3.16486 2.13284,-0.43398 2.82085,-2.62768 1.95819,-3.34745 -0.58216,-0.48955 -2.28367,-0.51072 -3.01667,-0.44456 z">
      </path>
   </g>
</svg>