<svg xmlns="http://www.w3.org/2000/svg" width="68" height="68" viewBox="0 0 68 68">
  <g id="it_product_development" data-name="it product development" transform="translate(-13066 918)">
    <rect id="Rectangle_541" data-name="Rectangle 541" width="68" height="68" transform="translate(13066 -918)" fill="none"/>
    <g id="product_2_" data-name="product (2)" transform="translate(13070.443 -914)">
      <path id="Path_953" data-name="Path 953" d="M26,57h5.535v1.845H26Z" transform="translate(-1.971 -4.338)" fill="#e84625"/>
      <path id="Path_954" data-name="Path 954" d="M58.163,16.018,55.9,15.262l1.067-2.135-3.55-3.55L51.28,10.646,50.525,8.38H45.505l-.755,2.266L42.615,9.578l-3.55,3.55.393.788H35.443A17.383,17.383,0,0,0,18.719,1h-.45A17.3,17.3,0,0,0,8.346,32.477a4.329,4.329,0,0,1,1.845,3.543v.036H4.016L.557,45.281H3.733v8.3A4.618,4.618,0,0,0,8.346,58.2h20.3a4.618,4.618,0,0,0,4.613-4.613v-8.3h3.176l-3.459-9.225H26.8v-.035a4.329,4.329,0,0,1,1.845-3.543,17.28,17.28,0,0,0,6.672-9.337h4.145l-.394.788,3.55,3.55L44.75,26.41l.755,2.266h5.019l.755-2.266,2.136,1.068,3.55-3.55L55.9,21.794l2.266-.756ZM17.5,36.056,16.246,20.373h2.3a2.248,2.248,0,0,0,.491.266l1.637.614-1.183,14.8Zm2.181-17.145a.409.409,0,0,1,0-.766l5.269-1.976v4.718Zm7.115.54h11.07v1.588l.772.257H26.8Zm11.07-3.433v1.588H26.8V15.76H38.639ZM9.4,30.966A15.458,15.458,0,0,1,18.269,2.845h.45a15.539,15.539,0,0,1,14.819,11.07H25.706l-6.672,2.5a2.265,2.265,0,0,0-1.463,2.111H16.1l-.172-2.139a3.709,3.709,0,0,0-3.678-3.4h-.212a3.69,3.69,0,1,0,0,7.38h2.359L15.65,36.056H12.036v-.035A6.173,6.173,0,0,0,9.4,30.966Zm4.843-12.438h-2.21a1.845,1.845,0,1,1,0-3.69h.212a1.854,1.854,0,0,1,1.839,1.7ZM5.3,37.9H15.317l-2.076,5.535H3.219Zm.283,15.683v-8.3H14.52l2.128-5.674V56.352h-8.3A2.771,2.771,0,0,1,5.578,53.584Zm25.831,0a2.771,2.771,0,0,1-2.768,2.768H18.494V39.607l2.128,5.674H31.409Zm2.359-10.148H21.9L19.825,37.9H31.691ZM27.584,30.966a6.173,6.173,0,0,0-2.633,5.055v.035H21.338l1.13-14.129,3.238,1.214h7.686A15.445,15.445,0,0,1,27.584,30.966ZM56.318,19.708l-2.116.706-.156.407c-.046.118-.092.235-.143.35l-.179.4,1,1.995-1.669,1.669-1.995-1-.4.179c-.113.051-.229.1-.346.141l-.411.155-.707,2.12H46.834l-.707-2.12-.411-.155c-.117-.044-.232-.09-.346-.141l-.4-.179-1.995,1-1.669-1.669,1-1.995-.179-.4c-.052-.115-.1-.232-.143-.35l-.156-.407-2.115-.706V17.347l2.116-.706.156-.407c.046-.118.092-.235.143-.35l.179-.4-1-1.995,1.669-1.669,1.995,1,.4-.179c.113-.051.229-.1.346-.141l.411-.155.707-2.119H49.2l.707,2.12.411.155c.117.044.232.09.346.141l.4.179,1.995-1,1.669,1.669-1,1.995.179.4c.052.115.1.232.143.35l.156.407,2.115.706Z" fill="#e84625"/>
      <path id="Path_955" data-name="Path 955" d="M51.613,15a4.613,4.613,0,1,0,4.613,4.613A4.618,4.618,0,0,0,51.613,15Zm0,7.38a2.768,2.768,0,1,1,2.768-2.768A2.771,2.771,0,0,1,51.613,22.38Z" transform="translate(-3.598 -1.085)" fill="#e84625"/>
      <path id="Path_956" data-name="Path 956" d="M6.845,20H5a14.179,14.179,0,0,0,.139,1.975l1.827-.259A12.3,12.3,0,0,1,6.845,20Z" transform="translate(-0.344 -1.472)" fill="#e84625"/>
      <path id="Path_957" data-name="Path 957" d="M7.39,23.715l-1.769.526a13.8,13.8,0,0,0,6.345,8.033l.924-1.6a11.954,11.954,0,0,1-5.5-6.962Z" transform="translate(-0.392 -1.76)" fill="#e84625"/>
      <path id="Path_958" data-name="Path 958" d="M17,7h1.845V8.845H17Z" transform="translate(-1.274 -0.465)" fill="#e84625"/>
      <path id="Path_959" data-name="Path 959" d="M13,7h1.845V8.845H13Z" transform="translate(-0.964 -0.465)" fill="#e84625"/>
      <path id="Path_960" data-name="Path 960" d="M25,7h1.845V8.845H25Z" transform="translate(-1.894 -0.465)" fill="#e84625"/>
      <path id="Path_961" data-name="Path 961" d="M21,7h1.845V8.845H21Z" transform="translate(-1.584 -0.465)" fill="#e84625"/>
    </g>
  </g>
</svg>
