<svg xmlns="http://www.w3.org/2000/svg" width="68" height="68" viewBox="0 0 68 68">
  <g id="content_marketing" data-name="content marketing" transform="translate(-11982 918)">
    <rect id="Rectangle_534" data-name="Rectangle 534" width="68" height="68" transform="translate(11982 -918)" fill="none"/>
    <g id="Group_533" data-name="Group 533" transform="translate(11451.76 -1102.64)">
      <path id="Path_29" data-name="Path 29" d="M532.24,249.688h3.152V215.222a2.786,2.786,0,0,1,2.057-2.993,2.817,2.817,0,0,1,.743-.093q9.287-.01,18.58-.007c.1,0,.206.013.345.027v1.46H538.783c-1.42,0-1.792.372-1.792,1.772v34.26h54.884V215.242c0-1.188-.431-1.619-1.632-1.626s-2.376,0-3.59,0v-1.48h1.732c.67,0,1.34-.007,2.011,0a2.732,2.732,0,0,1,2.86,2.893q.01,6.938.007,13.875v20.79h3.265v3.517c-.684.916-1.4,1.812-2.044,2.747a1.209,1.209,0,0,1-1.128.584c-5.839-.02-11.679-.013-17.512-.013q-20.275,0-40.551.007a1.009,1.009,0,0,1-.929-.478c-.683-.969-1.413-1.9-2.123-2.853Zm1.075,1.42a10.693,10.693,0,0,0,.624,1.513c.352.591.816,1.115,1.181,1.7a1.041,1.041,0,0,0,1.022.531q11.924-.02,23.849-.013,16.443,0,32.88-.013a1.127,1.127,0,0,0,.757-.378c.5-.617.916-1.3,1.407-1.924a1.51,1.51,0,0,0,.245-1.413Z" transform="translate(0 -7.903)" fill="#e84625" stroke="#e84625" stroke-width="0.3"/>
      <path id="Path_30" data-name="Path 30" d="M588.747,208.284c.5,3.358-1.1,5.906-3.968,6.344a5.13,5.13,0,0,1-5.766-5.176c-.684.08-1.36.146-2.037.239a4.032,4.032,0,0,1-3.1-7.273q7.5-5.843,15-11.679c.113-.093.239-.173.345-.272a1.955,1.955,0,0,1,2.634-.392,5.8,5.8,0,0,1,1.493,1.121,20.03,20.03,0,0,1,5.3,12.555,6.072,6.072,0,0,1-.305,2.09,1.971,1.971,0,0,1-1.9,1.433c-2.475.239-4.937.61-7.4.929A2.016,2.016,0,0,0,588.747,208.284Zm5.3-2.309a21.921,21.921,0,0,1-5.528-13.139.6.6,0,0,0-.153.06q-6.828,5.375-13.656,10.75a2.47,2.47,0,0,0-.849,3.019,2.645,2.645,0,0,0,2.926,1.553c1.825-.246,3.65-.478,5.474-.717Zm3.3-2.362a20.5,20.5,0,0,0-4.93-11.533,4.245,4.245,0,0,0-.81-.69c-.9-.624-1.486-.4-1.486.677a18.182,18.182,0,0,0,.385,4.028,19.181,19.181,0,0,0,3.709,7.731,9.554,9.554,0,0,0,1.772,1.659c.577.425.975.232,1.148-.464A12.331,12.331,0,0,0,597.347,203.612Zm-16.768,5.614a3.447,3.447,0,1,0,6.775-.272c-.053-.285-.113-.518-.511-.464C584.772,208.742,582.7,208.981,580.578,209.226Z" transform="translate(-13.421 -0.367)" fill="#e84625" stroke="#e84625" stroke-width="0.3"/>
      <path id="Path_31" data-name="Path 31" d="M570.62,232.123V249H569.9c-4.917,0-9.828-.007-14.745.013a2.034,2.034,0,0,0-1.128.378c-1.792,1.327-3.557,2.7-5.428,4.134v-4.512H544.96v-16.9C553.494,232.123,562.014,232.123,570.62,232.123Zm-1.52,15.388v-13.9H546.466v13.915h3.623v3.039c1.194-.929,2.3-1.758,3.371-2.621a1.857,1.857,0,0,1,1.247-.445c3.344.02,6.7.013,10.04.013Z" transform="translate(-4.279 -14.625)" fill="#e84625" stroke="#e84625" stroke-width="0.3"/>
      <path id="Path_32" data-name="Path 32" d="M607.017,236.32v1.387H588.49V236.32Z" transform="translate(-18.924 -16.041)" fill="#e84625" stroke="#e84625" stroke-width="0.3"/>
      <path id="Path_33" data-name="Path 33" d="M588.46,244.714V243.32h18.527v1.394Z" transform="translate(-18.914 -18.396)" fill="#e84625" stroke="#e84625" stroke-width="0.3"/>
      <path id="Path_34" data-name="Path 34" d="M592.33,251.883V250.47H605.9v1.413Z" transform="translate(-20.216 -20.801)" fill="#e84625" stroke="#e84625" stroke-width="0.3"/>
      <path id="Path_35" data-name="Path 35" d="M613.93,205.477c.206-.484.378-.9.571-1.367,1.141.471,2.236.916,3.371,1.38-.186.458-.358.883-.557,1.367C616.193,206.4,615.1,205.955,613.93,205.477Z" transform="translate(-27.483 -5.205)" fill="#e84625" stroke="#e84625" stroke-width="0.3"/>
      <path id="Path_36" data-name="Path 36" d="M610.18,188.64c.484.2.883.365,1.367.571-.465,1.135-.916,2.243-1.38,3.384-.471-.192-.9-.372-1.367-.564C609.258,190.889,609.709,189.795,610.18,188.64Z" transform="translate(-25.757 0)" fill="#e84625" stroke="#e84625" stroke-width="0.3"/>
      <path id="Path_37" data-name="Path 37" d="M612.36,197.573c1.141-.478,2.223-.936,3.364-1.413.2.464.372.876.577,1.36-1.121.471-2.2.929-3.371,1.42C612.745,198.476,612.566,198.051,612.36,197.573Z" transform="translate(-26.955 -2.53)" fill="#e84625" stroke="#e84625" stroke-width="0.3"/>
      <path id="Path_38" data-name="Path 38" d="M558.908,242.609c0-1.048-.007-2.09,0-3.139.007-.823.5-1.141,1.234-.776,2.09,1.048,4.18,2.1,6.251,3.192a1.192,1.192,0,0,1,.571.856c.007.246-.338.6-.617.737-2.037,1.068-4.088,2.1-6.138,3.132a.84.84,0,0,1-1.3-.8C558.9,244.739,558.908,243.671,558.908,242.609Zm1.54-2.09v4.293c1.407-.723,2.747-1.407,4.194-2.143C563.2,241.926,561.855,241.236,560.448,240.519Z" transform="translate(-8.971 -16.789)" fill="#e84625" stroke="#e84625" stroke-width="0.3"/>
    </g>
  </g>
</svg>
