<svg xmlns="http://www.w3.org/2000/svg" width="68" height="68" viewBox="0 0 68 68">
  <g id="seo" transform="translate(-13066 1174)">
    <rect id="Rectangle_542" data-name="Rectangle 542" width="68" height="68" transform="translate(13066 -1174)" fill="none"/>
    <g id="seo-2" data-name="seo" transform="translate(13069 -1171)">
      <path id="Path_900" data-name="Path 900" d="M51.9,50.533A29.957,29.957,0,0,0,51.892,9.5L53.94,7.454a2.858,2.858,0,0,0,1.244.291,2.9,2.9,0,1,0-2.9-2.9,2.858,2.858,0,0,0,.291,1.244L50.523,8.133A29.95,29.95,0,0,0,13.68,4.841H3.873A3.876,3.876,0,0,0,0,8.714v42.6a3.876,3.876,0,0,0,3.873,3.873h9.795a29.98,29.98,0,0,0,32.507.1l3.65,3.65A3.706,3.706,0,1,0,55.066,53.7Zm3.282-46.66a.968.968,0,1,1-.968.968A.97.97,0,0,1,55.184,3.873ZM30.012,1.937A27.972,27.972,0,0,1,49.155,9.5l-2.408,2.408a2.845,2.845,0,0,0-2.927.255L38.609,8.515a2.878,2.878,0,0,0,.116-.77,2.9,2.9,0,1,0-2.9,2.9A2.879,2.879,0,0,0,37.5,10.1l5.212,3.648a2.878,2.878,0,0,0-.116.77,2.9,2.9,0,1,0,5.809,0,2.858,2.858,0,0,0-.291-1.244l2.408-2.408a28.023,28.023,0,0,1,.009,38.292l-6.311-6.311a15.354,15.354,0,0,0,2.2-7.031h9.731V33.885H54.216V18.395H48.407v15.49H46.471V24.2H40.662v9.681H38.726V18.395H32.917v1.1a15.774,15.774,0,0,0-1.936-.135V8.714a3.876,3.876,0,0,0-3.873-3.873H17.6a27.965,27.965,0,0,1,12.417-2.9ZM46.471,14.522a.968.968,0,1,1-.968-.968A.97.97,0,0,1,46.471,14.522ZM36.789,7.745a.968.968,0,1,1-.968-.968A.97.97,0,0,1,36.789,7.745ZM15.54,35.821H5.809V26.14H18.184a15.4,15.4,0,0,0-2.694,8.713c0,.327.029.647.049.968ZM30.981,21.3a13.743,13.743,0,0,1,1.936.154V23.4a11.775,11.775,0,0,0-1.936-.167A11.618,11.618,0,1,0,42.549,35.821h1.936A13.547,13.547,0,1,1,30.981,21.3Zm9.632,14.522a9.787,9.787,0,1,1-7.7-10.433v8.5H30.981v1.936Zm-5.76-1.936V20.331h1.936V33.885Zm7.745,0V26.14h1.936v7.745Zm7.745,0V20.331H52.28V33.885ZM1.937,8.714A1.938,1.938,0,0,1,3.873,6.777H27.108a1.938,1.938,0,0,1,1.936,1.936v3.873H1.937Zm0,5.809H29.044V19.5A15.443,15.443,0,0,0,19.761,24.2H3.873V37.758h11.9a15.387,15.387,0,0,0,.5,1.936H3.873V41.63h13.2A15.576,15.576,0,0,0,19.761,45.5H1.937ZM3.873,53.248a1.938,1.938,0,0,1-1.936-1.936V47.439H21.985a15.375,15.375,0,0,0,7.06,2.77v1.1a1.938,1.938,0,0,1-1.936,1.936Zm26.14,4.841a27.98,27.98,0,0,1-12.412-2.9h9.508a3.876,3.876,0,0,0,3.873-3.873v-.968a15.371,15.371,0,0,0,8-2.25l5.788,5.788a27.946,27.946,0,0,1-14.756,4.207Zm22.433,0a1.758,1.758,0,0,1-1.252-.519l-10.6-10.6a15.6,15.6,0,0,0,2.5-2.5l10.6,10.6a1.77,1.77,0,0,1-1.253,3.022Zm0,0" fill="#e84625"/>
      <path id="Path_901" data-name="Path 901" d="M88,408h9.681v1.936H88Zm0,0" transform="translate(-77.35 -358.625)" fill="#e84625"/>
      <path id="Path_902" data-name="Path 902" d="M32,136h1.936v1.936H32Zm0,0" transform="translate(-28.127 -119.541)" fill="#e84625"/>
      <path id="Path_903" data-name="Path 903" d="M64,136h1.936v1.936H64Zm0,0" transform="translate(-56.255 -119.541)" fill="#e84625"/>
      <path id="Path_904" data-name="Path 904" d="M96,136h1.936v1.936H96Zm0,0" transform="translate(-84.382 -119.541)" fill="#e84625"/>
      <path id="Path_905" data-name="Path 905" d="M128,136h11.618v1.936H128Zm0,0" transform="translate(-112.51 -119.541)" fill="#e84625"/>
      <path id="Path_906" data-name="Path 906" d="M32,168H43.618v1.936H32Zm0,0" transform="translate(-28.127 -147.669)" fill="#e84625"/>
      <path id="Path_907" data-name="Path 907" d="M144,168h1.936v1.936H144Zm0,0" transform="translate(-126.573 -147.669)" fill="#e84625"/>
    </g>
  </g>
</svg>
