<svg xmlns="http://www.w3.org/2000/svg" width="68" height="68" viewBox="0 0 68 68">
  <g id="performance_marketing" data-name="performance marketing" transform="translate(-13066 669)">
    <rect id="Rectangle_543" data-name="Rectangle 543" width="68" height="68" transform="translate(13066 -669)" fill="none"/>
    <g id="performance" transform="translate(13068 -667)">
      <path id="Path_964" data-name="Path 964" d="M52,1V3h7.586L44,18.586l-7-7L22.779,25.807a11.051,11.051,0,1,0,.2,2.629L37,14.414l7,7,17-17V12h2V1ZM12,37a9,9,0,1,1,9-9A9.01,9.01,0,0,1,12,37Z" fill="#e84625"/>
      <path id="Path_965" data-name="Path 965" d="M13,25a1,1,0,0,1,1,1h2a3,3,0,0,0-3-3V21H11v2H8v3a3,3,0,0,0,3,3h2a1,1,0,0,1,1,1v1H11a1,1,0,0,1-1-1H8a3,3,0,0,0,3,3v2h2V33h3V30a3,3,0,0,0-3-3H11a1,1,0,0,1-1-1V25Z" fill="#e84625"/>
      <path id="Path_966" data-name="Path 966" d="M61,15H53V35H49V23H41V35H37V25H29V35.926A27.044,27.044,0,0,0,9,62v1H63V62A27.039,27.039,0,0,0,46.183,37H63V35H61Zm-6,2h4V35H55ZM43,25h4V35H43ZM54.969,61H42.92a6.967,6.967,0,0,0-1.539-3.47l6.305-10.509A19.017,19.017,0,0,1,54.969,61ZM36,43a18.866,18.866,0,0,1,6.42,1.137L35.9,55.005A7,7,0,0,0,29.08,61H17.051A19.007,19.007,0,0,1,36,43Zm-1-1.949a20.84,20.84,0,0,0-8.612,2.3L24.379,39.87A24.829,24.829,0,0,1,35,37.025v4.026Zm11.516,2.092a1,1,0,0,1,.343,1.372L39.865,56.17a6.93,6.93,0,0,0-1.815-.862l7.094-11.822a1.026,1.026,0,0,1,1.372-.343ZM36,57a5.009,5.009,0,0,1,4.9,4H31.1A5.009,5.009,0,0,1,36,57ZM46.886,41.145A2.975,2.975,0,0,0,46,41a3.011,3.011,0,0,0-2.526,1.4A20.815,20.815,0,0,0,37,41.05V37.025A24.829,24.829,0,0,1,47.622,39.87ZM31,27h4v8.025a27,27,0,0,0-4,.446ZM22.65,40.878l2.007,3.476a21.139,21.139,0,0,0-6.3,6.3l-3.479-2.009a25.208,25.208,0,0,1,7.775-7.77Zm-8.777,9.5,3.478,2.008A20.844,20.844,0,0,0,15.051,61H11.02A24.813,24.813,0,0,1,13.873,50.38ZM56.969,61a20.977,20.977,0,0,0-2.308-8.619l3.466-2A24.828,24.828,0,0,1,60.981,61Zm.156-12.351-3.469,2A21.022,21.022,0,0,0,48.7,45.283a2.991,2.991,0,0,0-.2-2.927l.853-1.477A25.194,25.194,0,0,1,57.125,48.649Z" fill="#e84625"/>
      <path id="Path_967" data-name="Path 967" d="M21.264,59.186a14.832,14.832,0,0,1,.483-1.873l-1.9-.625a16.8,16.8,0,0,0-.548,2.127Z" fill="#e84625"/>
      <path id="Path_968" data-name="Path 968" d="M36,47V45a16.9,16.9,0,0,0-15.291,9.562l1.8.877A14.906,14.906,0,0,1,36,47Z" fill="#e84625"/>
    </g>
  </g>
</svg>
