<svg xmlns="http://www.w3.org/2000/svg" width="68" height="68" viewBox="0 0 68 68">
  <g id="social_media_marketing" data-name="social media marketing" transform="translate(-12524 1174)">
    <rect id="Rectangle_537" data-name="Rectangle 537" width="68" height="68" transform="translate(12524 -1174)" fill="none"/>
    <g id="media-monitor-screen-Digital_Marketing" data-name="media-monitor-screen-Digital Marketing" transform="translate(12526 -1172.999)">
      <path id="Path_869" data-name="Path 869" d="M59,15H57V14h1a3,3,0,1,0,0-6H57V3a.968.968,0,0,0-.41-.8.991.991,0,0,0-.88-.16L42.85,6H36a1,1,0,0,0-1,1V8H33a1,1,0,0,0-1,1v4a1,1,0,0,0,1,1h2v1H29V6a1,1,0,0,0-1-1H8A1,1,0,0,0,7,6v9H5a3.009,3.009,0,0,0-3,3V50a3.009,3.009,0,0,0,3,3H28v3H22a1,1,0,0,0-1,1v4a1,1,0,0,0,1,1H42a1,1,0,0,0,1-1V57a1,1,0,0,0-1-1H36V53H59a3.009,3.009,0,0,0,3-3V18a3.009,3.009,0,0,0-3-3Zm-2-5h1a1,1,0,0,1,0,2H57ZM44,7.74,55,4.35v13.3L44,14.26ZM37,8h5v6H37Zm2.85,8-.72,5H38V16ZM34,12V10h1v2ZM9,7H27V21H9ZM41,58v2H23V58ZM30,56V53h4v3Zm30-6a1,1,0,0,1-1,1H5a1,1,0,0,1-1-1V49H60Zm0-3H4V18a1,1,0,0,1,1-1H7v5a1,1,0,0,0,1,1H28a1,1,0,0,0,1-1V17h7v5a1,1,0,0,0,1,1h3a1,1,0,0,0,.99-.86L41.87,16h.98l12.86,3.96A.925.925,0,0,0,56,20a1.015,1.015,0,0,0,1-1V17h2a1,1,0,0,1,1,1Z" fill="#e84625"/>
      <path id="Path_870" data-name="Path 870" d="M7,45H33a1,1,0,0,0,1-1V28a1,1,0,0,0-1-1H7a1,1,0,0,0-1,1V44A1,1,0,0,0,7,45Zm1-2V29.789l11.476,7.063a1,1,0,0,0,1.048,0L32,29.789V43Zm2.533-14H29.467L20,34.826Z" fill="#e84625"/>
      <path id="Path_871" data-name="Path 871" d="M37,39h2v3a1,1,0,0,0,1,1H57a1,1,0,0,0,1-1V30a1,1,0,0,0-1-1H56V26a1,1,0,0,0-1-1H37a1,1,0,0,0-1,1V38A1,1,0,0,0,37,39Zm19,2H41V31H56ZM38,27H54v2H40a1,1,0,0,0-1,1v7H38Z" fill="#e84625"/>
      <path id="Path_872" data-name="Path 872" d="M43,33h2v2H43Z" fill="#e84625"/>
      <path id="Path_873" data-name="Path 873" d="M47,33h7v2H47Z" fill="#e84625"/>
      <path id="Path_874" data-name="Path 874" d="M43,37h4v2H43Z" fill="#e84625"/>
      <path id="Path_875" data-name="Path 875" d="M49,37h5v2H49Z" fill="#e84625"/>
      <path id="Path_876" data-name="Path 876" d="M15.474,17.851a1,1,0,0,0,.973.044l6-3a1,1,0,0,0,0-1.79l-6-3A1,1,0,0,0,15,11v6A1,1,0,0,0,15.474,17.851ZM17,12.618,19.764,14,17,15.382Z" fill="#e84625"/>
    </g>
  </g>
</svg>
